<svg width="512" height="512" viewBox="0 0 512 512" fill="none" xmlns="http://www.w3.org/2000/svg">
<path d="M316 168H308.944L295.155 140.422C294.491 139.093 293.469 137.976 292.206 137.195C290.942 136.414 289.486 136 288 136H224C222.758 136 221.533 136.289 220.422 136.845C219.311 137.4 218.345 138.206 217.6 139.2L196 168H186C179.107 168.008 172.498 170.75 167.624 175.624C162.75 180.498 160.008 187.107 160 194V216C160 218.122 160.843 220.157 162.343 221.657C163.843 223.157 165.878 224 168 224H185.376C187.032 228.677 190.096 232.726 194.148 235.589C198.199 238.453 203.039 239.99 208 239.99C212.961 239.99 217.801 238.453 221.852 235.589C225.904 232.726 228.968 228.677 230.624 224H265.376C267.032 228.677 270.096 232.726 274.148 235.589C278.199 238.453 283.039 239.99 288 239.99C292.961 239.99 297.801 238.453 301.852 235.589C305.904 232.726 308.968 228.677 310.624 224H328C330.122 224 332.157 223.157 333.657 221.657C335.157 220.157 336 218.122 336 216V188C335.994 182.698 333.885 177.614 330.135 173.865C326.386 170.115 321.302 168.006 316 168ZM291.056 168H264V152H283.056L291.056 168ZM228 152H248V168H216L228 152ZM208 224C206.418 224 204.871 223.531 203.555 222.652C202.24 221.773 201.214 220.523 200.609 219.061C200.003 217.6 199.845 215.991 200.154 214.439C200.462 212.887 201.224 211.462 202.343 210.343C203.462 209.224 204.887 208.462 206.439 208.154C207.991 207.845 209.6 208.003 211.061 208.609C212.523 209.214 213.773 210.24 214.652 211.555C215.531 212.871 216 214.418 216 216C215.998 218.121 215.154 220.154 213.654 221.654C212.154 223.154 210.121 223.998 208 224ZM288 224C286.418 224 284.871 223.531 283.555 222.652C282.24 221.773 281.214 220.523 280.609 219.061C280.003 217.6 279.845 215.991 280.154 214.439C280.462 212.887 281.224 211.462 282.343 210.343C283.462 209.224 284.887 208.462 286.439 208.154C287.991 207.845 289.6 208.003 291.061 208.609C292.523 209.214 293.773 210.24 294.652 211.555C295.531 212.871 296 214.418 296 216C295.998 218.121 295.154 220.154 293.654 221.654C292.154 223.154 290.121 223.998 288 224ZM320 208H310.624C308.968 203.323 305.904 199.274 301.852 196.411C297.801 193.547 292.961 192.01 288 192.01C283.039 192.01 278.199 193.547 274.148 196.411C270.096 199.274 267.032 203.323 265.376 208H230.624C228.968 203.323 225.904 199.274 221.852 196.411C217.801 193.547 212.961 192.01 208 192.01C203.039 192.01 198.199 193.547 194.148 196.411C190.096 199.274 187.032 203.323 185.376 208H176V194C176.003 191.349 177.057 188.807 178.932 186.932C180.807 185.057 183.349 184.003 186 184H316C317.061 184 318.078 184.421 318.828 185.172C319.579 185.922 320 186.939 320 188V208Z" fill="#E51937"/>
<path d="M128 288C123.253 288 118.613 289.408 114.666 292.045C110.72 294.682 107.643 298.43 105.827 302.816C104.01 307.201 103.535 312.027 104.461 316.682C105.387 321.338 107.673 325.614 111.029 328.971C114.386 332.327 118.662 334.613 123.318 335.539C127.973 336.465 132.799 335.99 137.184 334.173C141.57 332.357 145.318 329.28 147.955 325.334C150.592 321.387 152 316.747 152 312C151.993 305.637 149.462 299.537 144.963 295.037C140.463 290.538 134.363 288.007 128 288ZM128 320C126.418 320 124.871 319.531 123.555 318.652C122.24 317.773 121.214 316.523 120.609 315.061C120.003 313.6 119.845 311.991 120.154 310.439C120.462 308.887 121.224 307.462 122.343 306.343C123.462 305.224 124.887 304.462 126.439 304.154C127.991 303.845 129.6 304.003 131.061 304.609C132.523 305.214 133.773 306.24 134.652 307.555C135.531 308.871 136 310.418 136 312C135.998 314.121 135.154 316.154 133.654 317.654C132.154 319.154 130.121 319.998 128 320Z" fill="#E51937"/>
<path d="M128 352C123.253 352 118.613 353.408 114.666 356.045C110.72 358.682 107.643 362.43 105.827 366.816C104.01 371.201 103.535 376.027 104.461 380.682C105.387 385.338 107.673 389.614 111.029 392.971C114.386 396.327 118.662 398.613 123.318 399.539C127.973 400.465 132.799 399.99 137.184 398.173C141.57 396.357 145.318 393.28 147.955 389.334C150.592 385.387 152 380.747 152 376C151.993 369.637 149.462 363.537 144.963 359.037C140.463 354.538 134.363 352.007 128 352ZM128 384C126.418 384 124.871 383.531 123.555 382.652C122.24 381.773 121.214 380.523 120.609 379.061C120.003 377.6 119.845 375.991 120.154 374.439C120.462 372.887 121.224 371.462 122.343 370.343C123.462 369.224 124.887 368.462 126.439 368.154C127.991 367.845 129.6 368.003 131.061 368.609C132.523 369.214 133.773 370.24 134.652 371.555C135.531 372.871 136 374.418 136 376C135.998 378.121 135.154 380.154 133.654 381.654C132.154 383.154 130.121 383.998 128 384Z" fill="#E51937"/>
<path d="M192 336C196.747 336 201.387 334.592 205.334 331.955C209.28 329.318 212.357 325.57 214.173 321.184C215.99 316.799 216.465 311.973 215.539 307.318C214.613 302.662 212.327 298.386 208.971 295.029C205.614 291.673 201.338 289.387 196.682 288.461C192.027 287.535 187.201 288.01 182.816 289.827C178.43 291.643 174.682 294.72 172.045 298.666C169.408 302.613 168 307.253 168 312C168.007 318.363 170.538 324.463 175.037 328.963C179.537 333.462 185.637 335.993 192 336ZM192 304C193.582 304 195.129 304.469 196.445 305.348C197.76 306.227 198.786 307.477 199.391 308.939C199.997 310.4 200.155 312.009 199.846 313.561C199.538 315.113 198.776 316.538 197.657 317.657C196.538 318.776 195.113 319.538 193.561 319.846C192.009 320.155 190.4 319.997 188.939 319.391C187.477 318.786 186.227 317.76 185.348 316.445C184.469 315.129 184 313.582 184 312C184.002 309.879 184.846 307.846 186.346 306.346C187.846 304.846 189.879 304.002 192 304Z" fill="#E51937"/>
<path d="M256 288C251.253 288 246.613 289.408 242.666 292.045C238.72 294.682 235.643 298.43 233.827 302.816C232.01 307.201 231.535 312.027 232.461 316.682C233.387 321.338 235.673 325.614 239.029 328.971C242.386 332.327 246.662 334.613 251.318 335.539C255.973 336.465 260.799 335.99 265.184 334.173C269.57 332.357 273.318 329.28 275.955 325.334C278.592 321.387 280 316.747 280 312C279.993 305.637 277.462 299.537 272.963 295.037C268.463 290.538 262.363 288.007 256 288ZM256 320C254.418 320 252.871 319.531 251.555 318.652C250.24 317.773 249.214 316.523 248.609 315.061C248.003 313.6 247.845 311.991 248.154 310.439C248.462 308.887 249.224 307.462 250.343 306.343C251.462 305.224 252.887 304.462 254.439 304.154C255.991 303.845 257.6 304.003 259.061 304.609C260.523 305.214 261.773 306.24 262.652 307.555C263.531 308.871 264 310.418 264 312C263.998 314.121 263.154 316.154 261.654 317.654C260.154 319.154 258.121 319.998 256 320Z" fill="#E51937"/>
<path d="M256 352C251.253 352 246.613 353.408 242.666 356.045C238.72 358.682 235.643 362.43 233.827 366.816C232.01 371.201 231.535 376.027 232.461 380.682C233.387 385.338 235.673 389.614 239.029 392.971C242.386 396.327 246.662 398.613 251.318 399.539C255.973 400.465 260.799 399.99 265.184 398.173C269.57 396.357 273.318 393.28 275.955 389.334C278.592 385.387 280 380.747 280 376C279.993 369.637 277.462 363.537 272.963 359.037C268.463 354.538 262.363 352.007 256 352ZM256 384C254.418 384 252.871 383.531 251.555 382.652C250.24 381.773 249.214 380.523 248.609 379.061C248.003 377.6 247.845 375.991 248.154 374.439C248.462 372.887 249.224 371.462 250.343 370.343C251.462 369.224 252.887 368.462 254.439 368.154C255.991 367.845 257.6 368.003 259.061 368.609C260.523 369.214 261.773 370.24 262.652 371.555C263.531 372.871 264 374.418 264 376C263.998 378.121 263.154 380.154 261.654 381.654C260.154 383.154 258.121 383.998 256 384Z" fill="#E51937"/>
<path d="M320 400C324.747 400 329.387 398.592 333.334 395.955C337.28 393.318 340.357 389.57 342.173 385.184C343.99 380.799 344.465 375.973 343.539 371.318C342.613 366.662 340.327 362.386 336.971 359.029C333.614 355.673 329.338 353.387 324.682 352.461C320.027 351.535 315.201 352.01 310.816 353.827C306.43 355.643 302.682 358.72 300.045 362.666C297.408 366.613 296 371.253 296 376C296.007 382.363 298.538 388.463 303.037 392.963C307.537 397.462 313.637 399.993 320 400ZM320 368C321.582 368 323.129 368.469 324.445 369.348C325.76 370.227 326.786 371.477 327.391 372.939C327.997 374.4 328.155 376.009 327.846 377.561C327.538 379.113 326.776 380.538 325.657 381.657C324.538 382.776 323.113 383.538 321.561 383.846C320.009 384.155 318.4 383.997 316.939 383.391C315.477 382.786 314.227 381.76 313.348 380.445C312.469 379.129 312 377.582 312 376C312.002 373.879 312.846 371.846 314.346 370.346C315.846 368.846 317.879 368.002 320 368Z" fill="#E51937"/>
<path d="M384 336C388.747 336 393.387 334.592 397.334 331.955C401.28 329.318 404.357 325.57 406.173 321.184C407.99 316.799 408.465 311.973 407.539 307.318C406.613 302.662 404.327 298.386 400.971 295.029C397.614 291.673 393.338 289.387 388.682 288.461C384.027 287.535 379.201 288.01 374.816 289.827C370.43 291.643 366.682 294.72 364.045 298.666C361.408 302.613 360 307.253 360 312C360.007 318.363 362.538 324.463 367.037 328.963C371.537 333.462 377.637 335.993 384 336ZM384 304C385.582 304 387.129 304.469 388.445 305.348C389.76 306.227 390.786 307.477 391.391 308.939C391.997 310.4 392.155 312.009 391.846 313.561C391.538 315.113 390.776 316.538 389.657 317.657C388.538 318.776 387.113 319.538 385.561 319.846C384.009 320.155 382.4 319.997 380.939 319.391C379.477 318.786 378.227 317.76 377.348 316.445C376.469 315.129 376 313.582 376 312C376.002 309.879 376.846 307.846 378.346 306.346C379.846 304.846 381.879 304.002 384 304Z" fill="#E51937"/>
<path d="M384 400C388.747 400 393.387 398.592 397.334 395.955C401.28 393.318 404.357 389.57 406.173 385.184C407.99 380.799 408.465 375.973 407.539 371.318C406.613 366.662 404.327 362.386 400.971 359.029C397.614 355.673 393.338 353.387 388.682 352.461C384.027 351.535 379.201 352.01 374.816 353.827C370.43 355.643 366.682 358.72 364.045 362.666C361.408 366.613 360 371.253 360 376C360.007 382.363 362.538 388.463 367.037 392.963C371.537 397.462 377.637 399.993 384 400ZM384 368C385.582 368 387.129 368.469 388.445 369.348C389.76 370.227 390.786 371.477 391.391 372.939C391.997 374.4 392.155 376.009 391.846 377.561C391.538 379.113 390.776 380.538 389.657 381.657C388.538 382.776 387.113 383.538 385.561 383.846C384.009 384.155 382.4 383.997 380.939 383.391C379.477 382.786 378.227 381.76 377.348 380.445C376.469 379.129 376 377.582 376 376C376.002 373.879 376.846 371.846 378.346 370.346C379.846 368.846 381.879 368.002 384 368Z" fill="#E51937"/>
<path d="M128 416C123.253 416 118.613 417.408 114.666 420.045C110.72 422.682 107.643 426.43 105.827 430.816C104.01 435.201 103.535 440.027 104.461 444.682C105.387 449.338 107.673 453.614 111.029 456.971C114.386 460.327 118.662 462.613 123.318 463.539C127.973 464.465 132.799 463.99 137.184 462.173C141.57 460.357 145.318 457.28 147.955 453.334C150.592 449.387 152 444.747 152 440C151.993 433.637 149.462 427.537 144.963 423.037C140.463 418.538 134.363 416.007 128 416ZM128 448C126.418 448 124.871 447.531 123.555 446.652C122.24 445.773 121.214 444.523 120.609 443.061C120.003 441.6 119.845 439.991 120.154 438.439C120.462 436.887 121.224 435.462 122.343 434.343C123.462 433.224 124.887 432.462 126.439 432.154C127.991 431.845 129.6 432.003 131.061 432.609C132.523 433.214 133.773 434.24 134.652 435.555C135.531 436.871 136 438.418 136 440C135.998 442.121 135.154 444.154 133.654 445.654C132.154 447.154 130.121 447.998 128 448Z" fill="#E51937"/>
<path d="M192 416C187.253 416 182.613 417.408 178.666 420.045C174.72 422.682 171.643 426.43 169.827 430.816C168.01 435.201 167.535 440.027 168.461 444.682C169.387 449.338 171.673 453.614 175.029 456.971C178.386 460.327 182.662 462.613 187.318 463.539C191.973 464.465 196.799 463.99 201.184 462.173C205.57 460.357 209.318 457.28 211.955 453.334C214.592 449.387 216 444.747 216 440C215.993 433.637 213.462 427.537 208.963 423.037C204.463 418.538 198.363 416.007 192 416ZM192 448C190.418 448 188.871 447.531 187.555 446.652C186.24 445.773 185.214 444.523 184.609 443.061C184.003 441.6 183.845 439.991 184.154 438.439C184.462 436.887 185.224 435.462 186.343 434.343C187.462 433.224 188.887 432.462 190.439 432.154C191.991 431.845 193.6 432.003 195.061 432.609C196.523 433.214 197.773 434.24 198.652 435.555C199.531 436.871 200 438.418 200 440C199.998 442.121 199.154 444.154 197.654 445.654C196.154 447.154 194.121 447.998 192 448Z" fill="#E51937"/>
<path d="M256 416C251.253 416 246.613 417.408 242.666 420.045C238.72 422.682 235.643 426.43 233.827 430.816C232.01 435.201 231.535 440.027 232.461 444.682C233.387 449.338 235.673 453.614 239.029 456.971C242.386 460.327 246.662 462.613 251.318 463.539C255.973 464.465 260.799 463.99 265.184 462.173C269.57 460.357 273.318 457.28 275.955 453.334C278.592 449.387 280 444.747 280 440C279.993 433.637 277.462 427.537 272.963 423.037C268.463 418.538 262.363 416.007 256 416ZM256 448C254.418 448 252.871 447.531 251.555 446.652C250.24 445.773 249.214 444.523 248.609 443.061C248.003 441.6 247.845 439.991 248.154 438.439C248.462 436.887 249.224 435.462 250.343 434.343C251.462 433.224 252.887 432.462 254.439 432.154C255.991 431.845 257.6 432.003 259.061 432.609C260.523 433.214 261.773 434.24 262.652 435.555C263.531 436.871 264 438.418 264 440C263.998 442.121 263.154 444.154 261.654 445.654C260.154 447.154 258.121 447.998 256 448Z" fill="#E51937"/>
<path d="M211.2 353.6L186.869 371.849L183.155 364.422C182.196 362.541 180.533 361.116 178.528 360.456C176.522 359.797 174.338 359.956 172.45 360.901C170.562 361.845 169.123 363.497 168.448 365.497C167.773 367.497 167.916 369.683 168.845 371.578L176.845 387.578C177.369 388.626 178.117 389.546 179.036 390.273C179.955 391 181.022 391.517 182.162 391.786C183.303 392.055 184.488 392.07 185.635 391.831C186.782 391.592 187.863 391.103 188.8 390.4L220.8 366.4C222.497 365.127 223.619 363.232 223.92 361.131C224.22 359.031 223.673 356.897 222.4 355.2C221.127 353.503 219.232 352.38 217.131 352.08C215.031 351.78 212.897 352.327 211.2 353.6Z" fill="#E51937"/>
<path d="M339.2 297.6L314.869 315.849L311.155 308.422C310.196 306.541 308.533 305.116 306.528 304.456C304.522 303.797 302.338 303.956 300.45 304.901C298.562 305.845 297.123 307.497 296.448 309.497C295.773 311.497 295.916 313.683 296.845 315.578L304.845 331.578C305.369 332.626 306.117 333.546 307.036 334.273C307.955 335 309.022 335.517 310.162 335.786C311.303 336.055 312.488 336.07 313.635 335.831C314.782 335.592 315.863 335.103 316.8 334.4L348.8 310.4C350.497 309.127 351.619 307.232 351.92 305.131C352.22 303.031 351.673 300.897 350.4 299.2C349.127 297.503 347.232 296.38 345.131 296.08C343.031 295.78 340.897 296.327 339.2 297.6Z" fill="#E51937"/>
<path d="M339.2 425.6L314.869 443.849L311.155 436.422C310.196 434.541 308.533 433.116 306.528 432.456C304.522 431.797 302.338 431.956 300.45 432.901C298.562 433.845 297.123 435.497 296.448 437.497C295.773 439.497 295.916 441.683 296.845 443.578L304.845 459.578C305.369 460.626 306.117 461.546 307.036 462.273C307.955 463 309.022 463.517 310.162 463.786C311.303 464.055 312.488 464.07 313.635 463.831C314.782 463.592 315.863 463.103 316.8 462.4L348.8 438.4C349.64 437.77 350.348 436.98 350.884 436.076C351.419 435.172 351.771 434.171 351.92 433.131C352.068 432.091 352.01 431.032 351.75 430.015C351.489 428.997 351.03 428.04 350.4 427.2C349.77 426.36 348.98 425.651 348.076 425.116C347.172 424.581 346.171 424.229 345.131 424.08C344.091 423.932 343.032 423.99 342.014 424.25C340.997 424.511 340.04 424.97 339.2 425.6Z" fill="#E51937"/>
<path d="M403.2 425.6L378.869 443.849L375.155 436.422C374.196 434.541 372.533 433.116 370.528 432.456C368.522 431.797 366.338 431.956 364.45 432.901C362.562 433.845 361.123 435.497 360.448 437.497C359.773 439.497 359.916 441.683 360.845 443.578L368.845 459.578C369.369 460.626 370.117 461.546 371.036 462.273C371.955 463 373.022 463.517 374.162 463.786C375.303 464.055 376.488 464.07 377.635 463.831C378.782 463.592 379.863 463.103 380.8 462.4L412.8 438.4C414.497 437.127 415.619 435.232 415.92 433.131C416.22 431.031 415.673 428.897 414.4 427.2C413.127 425.503 411.232 424.38 409.131 424.08C407.031 423.78 404.897 424.327 403.2 425.6Z" fill="#E51937"/>
<path d="M456 56H416V40C416 33.6348 413.471 27.5303 408.971 23.0294C404.47 18.5286 398.365 16 392 16C385.635 16 379.53 18.5286 375.029 23.0294C370.529 27.5303 368 33.6348 368 40V56H336V40C336 33.6348 333.471 27.5303 328.971 23.0294C324.47 18.5286 318.365 16 312 16C305.635 16 299.53 18.5286 295.029 23.0294C290.529 27.5303 288 33.6348 288 40V56H224V40C224 33.6348 221.471 27.5303 216.971 23.0294C212.47 18.5286 206.365 16 200 16C193.635 16 187.53 18.5286 183.029 23.0294C178.529 27.5303 176 33.6348 176 40V56H144V40C144 33.6348 141.471 27.5303 136.971 23.0294C132.47 18.5286 126.365 16 120 16C113.635 16 107.53 18.5286 103.029 23.0294C98.5286 27.5303 96 33.6348 96 40V56H86C80.1673 56.0066 74.5753 58.3266 70.451 62.451C66.3266 66.5753 64.0066 72.1673 64 78V488C64 490.122 64.8429 492.157 66.3431 493.657C67.8434 495.157 69.8783 496 72 496H440C442.122 496 444.157 495.157 445.657 493.657C447.157 492.157 448 490.122 448 488V472H472C474.122 472 476.157 471.157 477.657 469.657C479.157 468.157 480 466.122 480 464V80C479.993 73.637 477.462 67.5367 472.963 63.0373C468.463 58.538 462.363 56.0071 456 56ZM464 104H448V80C448 77.8783 448.843 75.8434 450.343 74.3431C451.843 72.8429 453.878 72 456 72C458.122 72 460.157 72.8429 461.657 74.3431C463.157 75.8434 464 77.8783 464 80V104ZM80 120H432V256H80V120ZM384 40C384 37.8783 384.843 35.8434 386.343 34.3431C387.843 32.8429 389.878 32 392 32C394.122 32 396.157 32.8429 397.657 34.3431C399.157 35.8434 400 37.8783 400 40V64C400 66.1217 399.157 68.1566 397.657 69.6569C396.157 71.1571 394.122 72 392 72C389.878 72 387.843 71.1571 386.343 69.6569C384.843 68.1566 384 66.1217 384 64V40ZM304 40C304 37.8783 304.843 35.8434 306.343 34.3431C307.843 32.8429 309.878 32 312 32C314.122 32 316.157 32.8429 317.657 34.3431C319.157 35.8434 320 37.8783 320 40V64C320 66.1217 319.157 68.1566 317.657 69.6569C316.157 71.1571 314.122 72 312 72C309.878 72 307.843 71.1571 306.343 69.6569C304.843 68.1566 304 66.1217 304 64V40ZM192 40C192 37.8783 192.843 35.8434 194.343 34.3431C195.843 32.8429 197.878 32 200 32C202.122 32 204.157 32.8429 205.657 34.3431C207.157 35.8434 208 37.8783 208 40V64C208 66.1217 207.157 68.1566 205.657 69.6569C204.157 71.1571 202.122 72 200 72C197.878 72 195.843 71.1571 194.343 69.6569C192.843 68.1566 192 66.1217 192 64V40ZM112 40C112 37.8783 112.843 35.8434 114.343 34.3431C115.843 32.8429 117.878 32 120 32C122.122 32 124.157 32.8429 125.657 34.3431C127.157 35.8434 128 37.8783 128 40V64C128 66.1217 127.157 68.1566 125.657 69.6569C124.157 71.1571 122.122 72 120 72C117.878 72 115.843 71.1571 114.343 69.6569C112.843 68.1566 112 66.1217 112 64V40ZM80 78C80.0016 76.4092 80.6342 74.884 81.7591 73.7591C82.884 72.6342 84.4092 72.0016 86 72H97.376C99.0318 76.6769 102.096 80.7257 106.148 83.5892C110.199 86.4528 115.039 87.9903 120 87.9903C124.961 87.9903 129.801 86.4528 133.852 83.5892C137.904 80.7257 140.968 76.6769 142.624 72H177.376C179.032 76.6769 182.096 80.7257 186.148 83.5892C190.199 86.4528 195.039 87.9903 200 87.9903C204.961 87.9903 209.801 86.4528 213.852 83.5892C217.904 80.7257 220.968 76.6769 222.624 72H289.376C291.032 76.6769 294.096 80.7257 298.148 83.5892C302.199 86.4528 307.039 87.9903 312 87.9903C316.961 87.9903 321.801 86.4528 325.852 83.5892C329.904 80.7257 332.968 76.6769 334.624 72H369.376C371.032 76.6769 374.096 80.7257 378.148 83.5892C382.199 86.4528 387.039 87.9903 392 87.9903C396.961 87.9903 401.801 86.4528 405.852 83.5892C409.904 80.7257 412.968 76.6769 414.624 72H433.376C432.464 74.5686 431.999 77.2744 432 80V104H80V78ZM432 480H80V272H432V480ZM464 456H448V120H464V456Z" fill="#E51937"/>
</svg>
