<svg width="512" height="512" viewBox="0 0 512 512" fill="none" xmlns="http://www.w3.org/2000/svg">
<path d="M208 136H224C226.122 136 228.157 135.157 229.657 133.657C231.157 132.157 232 130.122 232 128C232 125.878 231.157 123.843 229.657 122.343C228.157 120.843 226.122 120 224 120H208C205.878 120 203.843 120.843 202.343 122.343C200.843 123.843 200 125.878 200 128C200 130.122 200.843 132.157 202.343 133.657C203.843 135.157 205.878 136 208 136Z" fill="#E51937"/>
<path d="M232.004 348.004C236.424 348.004 240.008 344.421 240.008 340C240.008 335.58 236.424 331.996 232.004 331.996C227.584 331.996 224 335.58 224 340C224 344.421 227.584 348.004 232.004 348.004Z" fill="#E51937"/>
<path d="M479.155 228.422L447.155 164.422C446.491 163.093 445.469 161.976 444.206 161.195C442.942 160.414 441.486 160 440 160H439.993L424 160.015V134.833C424.02 128.886 422.374 123.052 419.247 117.993C416.121 112.934 411.639 108.853 406.311 106.211L389.744 97.928L368.735 61.163C365.054 54.7404 359.745 49.4021 353.343 45.6865C346.94 41.9708 339.671 40.0094 332.269 40H215.638C209.579 39.9967 203.591 41.3061 198.086 43.838C192.581 46.37 187.69 50.0643 183.749 54.667L148.32 96H145.7L89.231 70.9C83.6335 68.4395 77.425 67.7207 71.4133 68.837C65.4016 69.9533 59.8651 72.853 55.524 77.159L50.343 82.339C48.8421 83.8393 47.9988 85.8744 47.9984 87.9966C47.998 90.1188 48.8407 92.1541 50.341 93.655C51.8413 95.1559 53.8764 95.9993 55.9986 95.9996C58.1207 96 60.1561 95.1573 61.657 93.657L66.837 88.476C68.8848 86.445 71.4966 85.0773 74.3324 84.551C77.1682 84.0247 80.0967 84.3641 82.737 85.525L106.3 96H106C90.6228 96.0175 75.8804 102.134 65.0071 113.007C54.1338 123.88 48.0175 138.623 48 154V168C48 170.122 48.8429 172.157 50.3431 173.657C51.8434 175.157 53.8783 176 56 176H88.805C89.9911 181.804 92.4566 187.27 96.022 192H40C37.8783 192 35.8434 192.843 34.3431 194.343C32.8429 195.843 32 197.878 32 200V232C32 234.122 32.8429 236.157 34.3431 237.657C35.8434 239.157 37.8783 240 40 240H100.691L200.007 339.316C200.007 339.542 200 339.769 200 339.995C200 340.382 200.016 340.765 200.03 341.148L108.505 440H40C37.8783 440 35.8434 440.843 34.3431 442.343C32.8429 443.843 32 445.878 32 448V480C32 482.122 32.8429 484.157 34.3431 485.657C35.8434 487.157 37.8783 488 40 488H432C434.118 488 436.15 487.16 437.65 485.664C439.15 484.168 439.995 482.138 440 480.02L440.394 323.298L477.686 285.628C479.169 284.13 480 282.108 480 280V232C480 230.758 479.711 229.533 479.155 228.422ZM344 420.687L263.993 340.679C263.993 340.453 264 340.226 264 340C264 339.613 263.984 339.23 263.971 338.847L309.914 289.228L344 323.314V420.687ZM231.117 307.8L163.323 240.01L293.671 240.021L232.056 306.565C231.704 306.945 231.389 307.359 231.117 307.8ZM304 252.415V272.065L258.147 321.586C255.552 317.911 252.217 314.819 248.356 312.51L304 252.415ZM280 160H167.2C166.015 154.207 163.556 148.75 160 144.026V112H280V160ZM167.2 176H304.819C306.016 181.8 308.48 187.263 312.034 192H159.978C163.545 187.27 166.012 181.804 167.2 176ZM326.738 184.646C324.249 182.068 322.369 178.964 321.236 175.564C320.104 172.164 319.747 168.553 320.193 164.997C320.639 161.441 321.876 158.03 323.813 155.015C325.75 151.999 328.338 149.456 331.387 147.572C334.436 145.688 337.868 144.511 341.432 144.128C344.995 143.744 348.599 144.164 351.979 145.356C355.359 146.548 358.429 148.482 360.963 151.017C363.497 153.551 365.432 156.62 366.624 160H344C342.514 160 341.058 160.414 339.794 161.195C338.531 161.976 337.509 163.093 336.845 164.422L326.738 184.646ZM376 224.022V208H408V224.022H376ZM408 192H376V176H408V192ZM408 240.022C407.997 244.264 406.31 248.33 403.31 251.329C400.31 254.327 396.242 256.011 392 256.011H391.993C387.754 256.004 383.691 254.317 380.694 251.32C377.696 248.323 376.008 244.261 376 240.022H408ZM408 134.833V160H383.2C381.359 150.963 376.452 142.84 369.309 137.006C362.167 131.171 353.228 127.984 344.005 127.984C334.782 127.984 325.843 131.171 318.701 137.006C311.558 142.84 306.651 150.963 304.81 160H296V112H382.111L399.155 120.522C401.819 121.843 404.06 123.883 405.624 126.413C407.187 128.942 408.01 131.859 408 134.833ZM354.843 69.1L370.214 96H296V56H332.269C336.851 56.0056 341.351 57.2197 345.315 59.5197C349.278 61.8197 352.565 65.1242 354.843 69.1ZM195.9 65.079C198.339 62.2303 201.367 59.9436 204.774 58.3764C208.181 56.8091 211.888 55.9984 215.638 56H280V96H169.394L195.9 65.079ZM64 154C64.0124 142.865 68.4414 132.189 76.3153 124.315C84.1891 116.441 94.8647 112.012 106 112H143.958H143.996V131.35C138.534 128.962 132.606 127.825 126.648 128.024C120.69 128.222 114.851 129.751 109.56 132.497C104.269 135.244 99.6588 139.139 96.0676 143.898C92.4765 148.657 89.995 154.158 88.805 160H64V154ZM104 168C104 163.253 105.408 158.613 108.045 154.666C110.682 150.72 114.43 147.643 118.816 145.827C123.201 144.01 128.027 143.535 132.682 144.461C137.338 145.387 141.614 147.673 144.971 151.029C148.327 154.386 150.613 158.662 151.539 163.318C152.465 167.973 151.99 172.799 150.173 177.184C148.357 181.57 145.28 185.318 141.334 187.955C137.387 190.592 132.747 192 128 192C121.637 191.993 115.537 189.462 111.038 184.962C106.538 180.463 104.007 174.363 104 168ZM48 208H315.056L307.045 224.022L48 224V208ZM123.32 240.007H140.7L222.635 321.943C223.525 322.832 224.613 323.499 225.809 323.89C227.005 324.281 228.276 324.384 229.52 324.191C230.341 324.064 231.17 324 232 324C234.311 324.002 236.594 324.504 238.692 325.472C240.791 326.44 242.655 327.85 244.157 329.606C245.659 331.363 246.763 333.423 247.393 335.646C248.023 337.87 248.165 340.203 247.808 342.486C247.615 343.729 247.718 345.001 248.109 346.197C248.5 347.393 249.167 348.48 250.057 349.37L340.687 440H323.313L241.37 358.057C240.48 357.167 239.393 356.5 238.197 356.109C237.001 355.718 235.729 355.615 234.486 355.808C231.995 356.197 229.447 355.993 227.05 355.211C224.652 354.43 222.473 353.093 220.69 351.31C218.907 349.527 217.571 347.349 216.789 344.951C216.007 342.554 215.803 340.006 216.192 337.515C216.385 336.271 216.282 335 215.892 333.804C215.501 332.607 214.834 331.52 213.944 330.63L123.32 240.007ZM232.883 372.2L300.683 440H170.31L231.944 373.435C232.296 373.055 232.611 372.641 232.883 372.2ZM205.854 358.416C208.449 362.091 211.783 365.183 215.644 367.493L148.505 440H130.31L205.854 358.416ZM48 456H344V472H48V456ZM464 276.71L426.717 314.372C425.239 315.865 424.407 317.879 424.402 319.98L424.02 472H392V336H400C402.122 336 404.157 335.157 405.657 333.657C407.157 332.157 408 330.122 408 328C408 325.878 407.157 323.843 405.657 322.343C404.157 320.843 402.122 320 400 320H384C381.878 320 379.843 320.843 378.343 322.343C376.843 323.843 376 325.878 376 328V472H360V320C360 318.949 359.793 317.909 359.391 316.938C358.989 315.968 358.4 315.086 357.657 314.343L320 276.686V233.886L348.944 176H360V240.011C360.011 248.492 363.383 256.623 369.379 262.622C375.375 268.62 383.505 271.997 391.986 272.011H392C400.487 272.011 408.626 268.64 414.627 262.638C420.629 256.637 424 248.498 424 240.011V176.011L435.058 176L464 233.889V276.71Z" fill="#E51937"/>
</svg>
