<svg width="512" height="512" viewBox="0 0 512 512" fill="none" xmlns="http://www.w3.org/2000/svg">
<path d="M404 16H108C100.577 16.0085 93.4595 18.9612 88.2104 24.2104C82.9612 29.4595 80.0085 36.5765 80 44V468C80.0085 475.423 82.9612 482.54 88.2104 487.79C93.4595 493.039 100.577 495.992 108 496H404C411.423 495.992 418.54 493.039 423.79 487.79C429.039 482.54 431.992 475.423 432 468V44C431.992 36.5765 429.039 29.4595 423.79 24.2104C418.54 18.9612 411.423 16.0085 404 16ZM228.305 480H108C104.818 479.997 101.768 478.731 99.5185 476.481C97.2688 474.232 96.0034 471.182 96 468V448H228.305C225.485 452.861 224 458.38 224 464C224 469.62 225.485 475.139 228.305 480ZM256 480C252.835 480 249.742 479.062 247.111 477.304C244.48 475.545 242.429 473.047 241.218 470.123C240.007 467.199 239.69 463.982 240.307 460.879C240.925 457.775 242.449 454.924 244.686 452.686C246.924 450.449 249.775 448.925 252.879 448.307C255.982 447.69 259.199 448.007 262.123 449.218C265.047 450.429 267.545 452.48 269.304 455.111C271.062 457.742 272 460.836 272 464C271.995 468.242 270.308 472.309 267.308 475.308C264.309 478.308 260.242 479.995 256 480ZM416 468C415.997 471.182 414.731 474.232 412.481 476.481C410.232 478.731 407.182 479.997 404 480H283.7C286.52 475.139 288.005 469.62 288.005 464C288.005 458.38 286.52 452.861 283.7 448H416V468ZM416 432H96V64H416V432ZM416 48H96V44C96.0034 40.8185 97.2688 37.7682 99.5185 35.5185C101.768 33.2688 104.818 32.0034 108 32H404C407.182 32.0034 410.232 33.2688 412.481 35.5185C414.731 37.7682 415.997 40.8185 416 44V48Z" fill="#E51937"/>
<path d="M144 176H161.376C163.032 180.677 166.096 184.726 170.148 187.589C174.199 190.453 179.039 191.99 184 191.99C188.961 191.99 193.801 190.453 197.852 187.589C201.904 184.726 204.968 180.677 206.624 176H297.376C299.114 180.908 302.402 185.118 306.742 187.994C311.082 190.87 316.24 192.256 321.438 191.944C326.635 191.632 331.59 189.638 335.555 186.263C339.52 182.888 342.279 178.316 343.418 173.235L355.578 167.155C356.907 166.491 358.024 165.469 358.805 164.206C359.586 162.942 360 161.486 360 160V136C359.993 130.258 357.929 124.708 354.184 120.355C350.439 116.002 345.259 113.133 339.582 112.269L314.929 87.6161C312.52 85.194 309.655 83.2736 306.499 81.9664C303.344 80.6591 299.96 79.9907 296.544 80.0001H225C220.965 80.0098 216.988 80.9539 213.379 82.7582C209.77 84.5626 206.629 87.1782 204.2 90.4001L187.258 112.99L159.584 117.41C152.996 118.437 146.994 121.79 142.667 126.863C138.34 131.936 135.975 138.392 136 145.059V168C136 170.122 136.843 172.157 138.343 173.657C139.843 175.157 141.878 176 144 176ZM320 176C318.418 176 316.871 175.531 315.555 174.652C314.24 173.773 313.214 172.523 312.609 171.062C312.003 169.6 311.845 167.991 312.154 166.439C312.462 164.888 313.224 163.462 314.343 162.343C315.462 161.224 316.887 160.463 318.439 160.154C319.991 159.845 321.6 160.004 323.061 160.609C324.523 161.215 325.773 162.24 326.652 163.556C327.531 164.871 328 166.418 328 168C327.998 170.121 327.154 172.155 325.654 173.654C324.154 175.154 322.121 175.998 320 176ZM272 96.0001H296.544C297.858 95.9965 299.159 96.2536 300.373 96.7565C301.587 97.2595 302.689 97.9983 303.615 98.9301L316.686 112H272V96.0001ZM272 128H336C338.121 128.002 340.154 128.846 341.654 130.346C343.154 131.846 343.998 133.879 344 136V155.056L341.071 156.521C338.854 152.447 335.504 149.102 331.425 146.892C327.347 144.682 322.715 143.702 318.091 144.07C313.467 144.438 309.049 146.139 305.372 148.966C301.694 151.793 298.915 155.626 297.371 160H272V128ZM217 100C217.934 98.7609 219.142 97.755 220.53 97.061C221.918 96.367 223.448 96.0039 225 96.0001H256V112H208L217 100ZM200 128H256V160H206.624C205.275 156.209 202.998 152.815 200 150.131V128ZM192 168C192 169.582 191.531 171.129 190.652 172.445C189.773 173.76 188.523 174.786 187.061 175.391C185.6 175.997 183.991 176.155 182.439 175.846C180.887 175.538 179.462 174.776 178.343 173.657C177.224 172.538 176.462 171.113 176.154 169.561C175.845 168.009 176.003 166.4 176.609 164.939C177.214 163.477 178.24 162.227 179.555 161.348C180.871 160.469 182.418 160 184 160C186.121 160.002 188.154 160.846 189.654 162.346C191.154 163.846 191.998 165.879 192 168ZM152 145.059C151.989 142.202 153.003 139.435 154.857 137.261C156.712 135.087 159.284 133.649 162.107 133.209L184 129.709V144C179.039 144.006 174.201 145.548 170.151 148.412C166.1 151.277 163.035 155.325 161.376 160H152V145.059Z" fill="#E51937"/>
<path d="M144 288H192C193.051 288 194.091 287.793 195.062 287.391C196.032 286.989 196.914 286.4 197.657 285.657L221.657 261.657C222.4 260.914 222.989 260.032 223.391 259.062C223.793 258.091 224 257.051 224 256V224C224 221.878 223.157 219.843 221.657 218.343C220.157 216.843 218.122 216 216 216H144C141.878 216 139.843 216.843 138.343 218.343C136.843 219.843 136 221.878 136 224V280C136 282.122 136.843 284.157 138.343 285.657C139.843 287.157 141.878 288 144 288ZM152 232H208V252.687L188.687 272H152V232Z" fill="#E51937"/>
<path d="M192 248C192 245.878 191.157 243.843 189.657 242.343C188.157 240.843 186.122 240 184 240H168C165.878 240 163.843 240.843 162.343 242.343C160.843 243.843 160 245.878 160 248C160 250.122 160.843 252.157 162.343 253.657C163.843 255.157 165.878 256 168 256H184C186.122 256 188.157 255.157 189.657 253.657C191.157 252.157 192 250.122 192 248Z" fill="#E51937"/>
<path d="M360 248C360.003 242.99 358.83 238.049 356.575 233.575C354.319 229.102 351.045 225.22 347.016 222.243C342.986 219.266 338.314 217.276 333.375 216.435C328.436 215.593 323.369 215.923 318.581 217.398C313.793 218.872 309.418 221.451 305.808 224.925C302.199 228.399 299.456 232.673 297.799 237.401C296.143 242.129 295.62 247.18 296.273 252.148C296.925 257.115 298.735 261.86 301.556 266C297.305 269.758 293.899 274.376 291.562 279.547C289.225 284.718 288.011 290.325 288 296V304L275.2 313.6C274.36 314.23 273.651 315.02 273.116 315.924C272.581 316.828 272.229 317.828 272.08 318.868C271.932 319.908 271.99 320.968 272.25 321.985C272.511 323.003 272.97 323.959 273.6 324.8C274.23 325.64 275.02 326.348 275.924 326.884C276.828 327.419 277.829 327.771 278.869 327.919C279.909 328.068 280.968 328.01 281.985 327.75C283.003 327.489 283.96 327.03 284.8 326.4L293.764 319.677C294.474 319.884 360 320 360 320C362.122 320 364.157 319.157 365.657 317.657C367.157 316.156 368 314.122 368 312V296C367.98 286.802 364.797 277.89 358.986 270.761L380.8 254.4C381.64 253.769 382.349 252.98 382.884 252.076C383.419 251.172 383.771 250.171 383.92 249.131C384.068 248.091 384.01 247.032 383.75 246.014C383.489 244.997 383.03 244.04 382.4 243.2C381.77 242.359 380.98 241.651 380.076 241.116C379.172 240.581 378.171 240.229 377.131 240.08C376.091 239.932 375.032 239.989 374.015 240.25C372.997 240.511 372.04 240.969 371.2 241.6L359.927 250.055C359.97 249.375 360 248.691 360 248ZM328 232C331.164 232 334.258 232.938 336.889 234.696C339.52 236.454 341.571 238.953 342.782 241.877C343.993 244.8 344.31 248.018 343.693 251.121C343.075 254.225 341.551 257.076 339.314 259.314C337.076 261.551 334.225 263.075 331.121 263.692C328.018 264.31 324.801 263.993 321.877 262.782C318.953 261.571 316.455 259.52 314.696 256.889C312.938 254.258 312 251.164 312 248C312.005 243.758 313.692 239.691 316.692 236.692C319.691 233.692 323.758 232.005 328 232ZM313.8 276.666C316.098 277.808 318.527 278.668 321.032 279.227L304.4 291.7C305.512 285.677 308.872 280.303 313.8 276.666ZM352 304H314.667L346.186 280.361C349.927 284.714 351.989 290.26 352 296V304Z" fill="#E51937"/>
<path d="M360 360H352V352C351.995 347.758 350.308 343.691 347.308 340.692C344.309 337.692 340.242 336.005 336 336H320C315.758 336.005 311.691 337.692 308.692 340.692C305.692 343.691 304.005 347.758 304 352V360H296C293.878 360 291.843 360.843 290.343 362.343C288.843 363.843 288 365.878 288 368V408C288 410.122 288.843 412.157 290.343 413.657C291.843 415.157 293.878 416 296 416H360C362.122 416 364.157 415.157 365.657 413.657C367.157 412.157 368 410.122 368 408V368C368 365.878 367.157 363.843 365.657 362.343C364.157 360.843 362.122 360 360 360ZM320 352H336V360H320V352ZM352 400H304V376H352V400Z" fill="#E51937"/>
<path d="M200 328C200 321.635 197.471 315.53 192.971 311.029C188.47 306.529 182.365 304 176 304C169.635 304 163.53 306.529 159.029 311.029C154.529 315.53 152 321.635 152 328V362.841C147.927 367.46 145.273 373.156 144.356 379.246C143.44 385.335 144.3 391.56 146.834 397.173C149.368 402.786 153.467 407.549 158.641 410.889C163.814 414.23 169.842 416.007 176 416.007C182.158 416.007 188.186 414.23 193.359 410.889C198.533 407.549 202.632 402.786 205.166 397.173C207.7 391.56 208.56 385.335 207.644 379.246C206.727 373.156 204.073 367.46 200 362.841V328ZM168 328C168 325.878 168.843 323.843 170.343 322.343C171.843 320.843 173.878 320 176 320C178.122 320 180.157 320.843 181.657 322.343C183.157 323.843 184 325.878 184 328V336H168V328ZM176 400C172.76 399.999 169.597 399.015 166.929 397.177C164.261 395.339 162.213 392.735 161.057 389.708C159.902 386.682 159.692 383.375 160.456 380.227C161.22 377.079 162.922 374.236 165.336 372.076C166.174 371.326 166.845 370.407 167.304 369.38C167.763 368.353 168 367.241 168 366.116V352H184V366.116C184 367.241 184.237 368.353 184.696 369.38C185.155 370.407 185.826 371.326 186.664 372.076C189.078 374.236 190.78 377.079 191.544 380.227C192.308 383.375 192.098 386.682 190.943 389.708C189.787 392.735 187.739 395.339 185.071 397.177C182.403 399.015 179.24 399.999 176 400Z" fill="#E51937"/>
<path d="M232 152H240C242.122 152 244.157 151.157 245.657 149.657C247.157 148.157 248 146.122 248 144C248 141.878 247.157 139.843 245.657 138.343C244.157 136.843 242.122 136 240 136H232C229.878 136 227.843 136.843 226.343 138.343C224.843 139.843 224 141.878 224 144C224 146.122 224.843 148.157 226.343 149.657C227.843 151.157 229.878 152 232 152Z" fill="#E51937"/>
<path d="M256 206C259.314 206 262 203.314 262 200C262 196.686 259.314 194 256 194C252.686 194 250 196.686 250 200C250 203.314 252.686 206 256 206Z" fill="#E51937"/>
<path d="M278 206C281.314 206 284 203.314 284 200C284 196.686 281.314 194 278 194C274.686 194 272 196.686 272 200C272 203.314 274.686 206 278 206Z" fill="#E51937"/>
<path d="M234 206C237.314 206 240 203.314 240 200C240 196.686 237.314 194 234 194C230.686 194 228 196.686 228 200C228 203.314 230.686 206 234 206Z" fill="#E51937"/>
</svg>
