<svg width="512" height="512" viewBox="0 0 512 512" fill="none" xmlns="http://www.w3.org/2000/svg">
<path d="M296 200C289.637 200.007 283.537 202.538 279.037 207.037C274.538 211.537 272.007 217.637 272 224V240C272 246.365 274.529 252.47 279.029 256.971C283.53 261.471 289.635 264 296 264C302.365 264 308.47 261.471 312.971 256.971C317.471 252.47 320 246.365 320 240V224C319.993 217.637 317.462 211.537 312.963 207.037C308.463 202.538 302.363 200.007 296 200ZM296 216C298.121 216.002 300.154 216.846 301.654 218.346C303.154 219.846 303.998 221.879 304 224H288C288.002 221.879 288.846 219.846 290.346 218.346C291.846 216.846 293.879 216.002 296 216ZM296 248C293.879 247.998 291.846 247.154 290.346 245.654C288.846 244.154 288.002 242.121 288 240H304C303.998 242.121 303.154 244.154 301.654 245.654C300.154 247.154 298.121 247.998 296 248Z" fill="#E51937"/>
<path d="M434.126 56H400.443L328.883 48.049H328.858H328.837L176.837 32.049C176.559 32.0182 176.28 32.0018 176 32H48C45.8783 32 43.8434 32.8429 42.3431 34.3431C40.8429 35.8434 40 37.8783 40 40V136C40 138.122 40.8429 140.157 42.3431 141.657C43.8434 143.157 45.8783 144 48 144H150.3L218.847 174.465L241.6 204.8C241.981 205.307 242.422 205.768 242.912 206.171C240.976 211.916 239.993 217.938 240 224V288C240 290.122 240.843 292.157 242.343 293.657C243.843 295.157 245.878 296 248 296H272V384H264C262.42 384 260.876 384.467 259.562 385.344L213.578 416H196C188.577 416.008 181.46 418.961 176.21 424.21C170.961 429.46 168.008 436.577 168 444V472C168 474.122 168.843 476.157 170.343 477.657C171.843 479.157 173.878 480 176 480H202.707C204.977 484.787 208.558 488.832 213.036 491.664C217.513 494.496 222.702 496 228 496C233.298 496 238.487 494.496 242.964 491.664C247.442 488.832 251.023 484.787 253.293 480H314.707C316.977 484.787 320.558 488.832 325.036 491.664C329.513 494.496 334.702 496 340 496C345.298 496 350.487 494.496 354.964 491.664C359.442 488.832 363.023 484.787 365.293 480H392C394.122 480 396.157 479.157 397.657 477.657C399.157 476.157 400 474.122 400 472V432C400 430.514 399.586 429.058 398.805 427.794C398.024 426.531 396.907 425.509 395.578 424.845L380.336 417.224L341 385.753C339.581 384.618 337.817 383.999 336 384H320V368H336C338.122 368 340.157 367.157 341.657 365.657C343.157 364.157 344 362.122 344 360V328C344 325.878 343.157 323.843 341.657 322.343C340.157 320.843 338.122 320 336 320H320V296H344C346.122 296 348.157 295.157 349.657 293.657C351.157 292.157 352 290.122 352 288V224C351.999 218.582 351.214 213.193 349.669 208H360C362.122 208 364.157 207.157 365.657 205.657C367.157 204.157 368 202.122 368 200V145.888L369.67 149.228C371.966 153.88 375.519 157.797 379.925 160.537C384.331 163.276 389.416 164.728 394.604 164.728C396.93 164.727 399.248 164.439 401.504 163.873L417.939 159.764C419.063 159.483 420.112 158.961 421.014 158.235C421.917 157.509 422.651 156.596 423.165 155.558C423.68 154.52 423.963 153.383 423.996 152.226C424.028 151.068 423.808 149.917 423.352 148.852L416.19 132.141C416.313 132.141 416.435 132.154 416.559 132.154C419.396 132.155 422.214 131.697 424.905 130.8L434.529 127.592C435.616 127.229 436.613 126.638 437.452 125.856C438.29 125.075 438.951 124.123 439.39 123.064C439.828 122.005 440.034 120.864 439.994 119.719C439.953 118.573 439.667 117.45 439.154 116.425L431.532 101.181L436.167 98.863C439.462 97.2269 442.399 94.9537 444.809 92.1748C447.219 89.396 449.054 86.1668 450.208 82.674L451.201 79.695C452.103 76.9892 452.35 74.1076 451.92 71.2878C451.49 68.468 450.397 65.7907 448.729 63.4766C447.061 61.1625 444.868 59.2778 442.329 57.9779C439.79 56.678 436.978 56.0001 434.126 56ZM266.426 400H288V416H242.422L266.426 400ZM228 480C225.627 480 223.307 479.296 221.333 477.978C219.36 476.659 217.822 474.785 216.913 472.592C216.005 470.399 215.768 467.987 216.231 465.659C216.694 463.331 217.837 461.193 219.515 459.515C221.193 457.836 223.331 456.694 225.659 456.231C227.987 455.768 230.399 456.005 232.592 456.913C234.785 457.822 236.659 459.36 237.978 461.333C239.296 463.307 240 465.627 240 468C239.997 471.182 238.731 474.232 236.481 476.481C234.232 478.731 231.182 479.997 228 480ZM340 480C337.627 480 335.307 479.296 333.333 477.978C331.36 476.659 329.822 474.785 328.913 472.592C328.005 470.399 327.768 467.987 328.231 465.659C328.694 463.331 329.836 461.193 331.515 459.515C333.193 457.836 335.331 456.694 337.659 456.231C339.987 455.768 342.399 456.005 344.592 456.913C346.785 457.822 348.659 459.36 349.978 461.333C351.296 463.307 352 465.627 352 468C351.997 471.182 350.731 474.232 348.481 476.481C346.232 478.731 343.182 479.997 340 480ZM372.422 431.155L384 436.944V464H367.71C366.744 457.34 363.412 451.251 358.323 446.847C353.234 442.443 346.73 440.019 340 440.019C333.27 440.019 326.766 442.443 321.677 446.847C316.588 451.251 313.256 457.34 312.29 464H255.71C254.744 457.34 251.412 451.251 246.323 446.847C241.234 442.443 234.73 440.019 228 440.019C221.27 440.019 214.766 442.443 209.677 446.847C204.588 451.251 201.256 457.34 200.29 464H184V444C184.003 440.818 185.269 437.768 187.519 435.519C189.768 433.269 192.818 432.003 196 432H328C329.58 432 331.124 431.533 332.438 430.656L353.752 416.447L371.002 430.247C371.442 430.599 371.918 430.903 372.422 431.155ZM340.641 405.955L325.578 416H304V400H333.194L340.641 405.955ZM312 336H328V352H312C309.878 352 307.843 352.843 306.343 354.343C304.843 355.843 304 357.878 304 360V384H288V296H304V328C304 330.122 304.843 332.157 306.343 333.657C307.843 335.157 309.878 336 312 336ZM336 280H256V224C255.985 218.075 257.3 212.222 259.848 206.873C264.354 205.546 268.456 203.111 271.779 199.791C275.101 196.47 277.539 192.369 278.868 187.864C284.221 185.32 290.073 184 296 184C301.927 184 307.779 185.32 313.132 187.864C314.46 192.369 316.897 196.469 320.218 199.789C323.54 203.109 327.641 205.544 332.146 206.871C334.682 212.225 335.998 218.076 336 224V280ZM312 170.334C301.56 167.222 290.44 167.222 280 170.334V152C280 150.949 279.793 149.909 279.391 148.938C278.989 147.968 278.4 147.086 277.657 146.343L250.294 118.98L259.787 104.742L298.667 111.222L312 137.889V170.334ZM352 192H340C337.175 191.995 334.442 190.995 332.282 189.174C330.122 187.354 328.672 184.831 328.188 182.048C328.165 181.707 328.119 181.369 328.052 181.034C328.023 180.692 328 180.349 328 180V136C328 134.758 327.711 133.533 327.155 132.422L311.155 100.422C310.591 99.2935 309.767 98.3145 308.752 97.5649C307.737 96.8153 306.56 96.3164 305.315 96.109L257.315 88.109C255.795 87.8557 254.234 88.0468 252.82 88.6594C251.406 89.2719 250.199 90.2799 249.344 91.562L233.344 115.562C232.318 117.101 231.857 118.948 232.039 120.788C232.222 122.629 233.036 124.349 234.344 125.657L264 155.314V180C264 180.352 263.977 180.7 263.947 181.042C263.882 181.37 263.837 181.702 263.814 182.036C263.332 184.822 261.883 187.348 259.722 189.17C257.561 190.993 254.827 191.995 252 192L230.4 163.2C229.581 162.108 228.496 161.243 227.249 160.689L155.249 128.689C154.226 128.235 153.119 128 152 128H56V48H175.58L323.087 63.527L352 114.125V192ZM397.624 148.348C394.975 149.024 392.174 148.769 389.691 147.627C387.207 146.484 385.191 144.524 383.98 142.073L367.155 108.422C367.114 108.339 367.064 108.264 367.02 108.183C366.993 108.133 366.974 108.083 366.946 108.031L350.719 79.631L385.634 101.454L404.946 146.515L397.624 148.348ZM419.847 115.619C417.286 116.457 414.504 116.309 412.046 115.205C409.587 114.101 407.629 112.12 406.554 109.649V109.64L399.354 92.849C398.711 91.3488 397.625 90.0811 396.241 89.216L375.86 76.478L402.791 79.47L420.72 115.328L419.847 115.619ZM436.023 74.631L435.03 77.611C434.536 79.108 433.749 80.492 432.716 81.6831C431.684 82.8741 430.425 83.8486 429.013 84.55L424.378 86.867L416.944 72H434.126C434.443 71.9997 434.755 72.0747 435.038 72.2188C435.32 72.363 435.564 72.5721 435.75 72.8291C435.935 73.086 436.057 73.3834 436.105 73.6967C436.153 74.01 436.126 74.3302 436.026 74.631H436.023Z" fill="#E51937"/>
</svg>
