<svg width="512" height="512" viewBox="0 0 512 512" fill="none" xmlns="http://www.w3.org/2000/svg">
<path d="M386 55.9999H304C304 53.8782 303.157 51.8433 301.657 50.343C300.157 48.8428 298.122 47.9999 296 47.9999H287.548C285.547 47.9975 283.628 47.2015 282.213 45.7865C280.798 44.3715 280.002 42.453 280 40.4519C280.068 34.2221 277.73 28.2062 273.474 23.6566C269.217 19.1069 263.37 16.3741 257.15 16.0269C253.902 15.8595 250.655 16.3595 247.608 17.4958C244.561 18.6322 241.78 20.3808 239.435 22.6339C237.091 24.879 235.224 27.5744 233.946 30.5585C232.668 33.5425 232.007 36.7539 232 39.9999V40.4519C231.998 42.453 231.202 44.3715 229.787 45.7865C228.372 47.2015 226.453 47.9975 224.452 47.9999H216C213.878 47.9999 211.843 48.8428 210.343 50.343C208.843 51.8433 208 53.8782 208 55.9999H126C120.167 56.0065 114.575 58.3265 110.451 62.4509C106.327 66.5752 104.007 72.1672 104 77.9999V368H40C37.8783 368 35.8434 368.843 34.3431 370.343C32.8429 371.843 32 373.878 32 376V488C32 490.122 32.8429 492.156 34.3431 493.657C35.8434 495.157 37.8783 496 40 496H216C218.122 496 220.157 495.157 221.657 493.657C223.157 492.156 224 490.122 224 488V480H386C391.833 479.993 397.425 477.673 401.549 473.549C405.673 469.425 407.993 463.833 408 458V448H426C431.833 447.993 437.425 445.673 441.549 441.549C445.673 437.425 447.993 431.833 448 426V262C447.993 256.167 445.673 250.575 441.549 246.451C437.425 242.327 431.833 240.007 426 240H408V77.9999C407.993 72.1672 405.673 66.5752 401.549 62.4509C397.425 58.3265 391.833 56.0065 386 55.9999ZM304 73.9999V71.9999H386C387.591 72.0015 389.116 72.6341 390.241 73.759C391.366 74.8839 391.998 76.4091 392 77.9999V240H376V95.9999C376 93.8782 375.157 91.8433 373.657 90.343C372.157 88.8428 370.122 87.9999 368 87.9999H300.521C302.809 83.6885 304.004 78.881 304 73.9999ZM224 63.9999H224.452C230.695 63.9928 236.681 61.5095 241.095 57.095C245.51 52.6804 247.993 46.695 248 40.4519V39.9999C248 38.9156 248.22 37.8427 248.648 36.8462C249.075 35.8498 249.701 34.9506 250.486 34.2033C251.272 33.4561 252.201 32.8763 253.218 32.4992C254.234 32.1222 255.317 31.9557 256.4 32.0099C258.5 32.1936 260.452 33.1671 261.863 34.7339C263.273 36.3006 264.037 38.3441 264 40.4519C264.007 46.695 266.49 52.6804 270.905 57.095C275.319 61.5095 281.305 63.9928 287.548 63.9999H288V73.9999C287.996 77.7117 286.52 81.2704 283.895 83.895C281.27 86.5197 277.712 87.9959 274 87.9999H238C234.288 87.9959 230.73 86.5197 228.105 83.895C225.48 81.2704 224.004 77.7117 224 73.9999V63.9999ZM360 104V240H296C293.878 240 291.843 240.843 290.343 242.343C288.843 243.843 288 245.878 288 248H152V104H360ZM208 480H48V384H208V480ZM392 458C391.998 459.591 391.366 461.116 390.241 462.241C389.116 463.366 387.591 463.998 386 464H224V376C224 373.878 223.157 371.843 221.657 370.343C220.157 368.843 218.122 368 216 368H120V77.9999C120.002 76.4091 120.634 74.8839 121.759 73.759C122.884 72.6341 124.409 72.0015 126 71.9999H208V73.9999C207.996 78.8809 209.19 83.6882 211.478 87.9999H144C141.878 87.9999 139.843 88.8428 138.343 90.343C136.843 91.8433 136 93.8782 136 95.9999V256C136 258.122 136.843 260.156 138.343 261.657C139.843 263.157 141.878 264 144 264H288V288H232C229.878 288 227.843 288.843 226.343 290.343C224.843 291.843 224 293.878 224 296C224 298.122 224.843 300.156 226.343 301.657C227.843 303.157 229.878 304 232 304H288V368H248C245.878 368 243.843 368.843 242.343 370.343C240.843 371.843 240 373.878 240 376C240 378.122 240.843 380.156 242.343 381.657C243.843 383.157 245.878 384 248 384H288V440C288 442.122 288.843 444.156 290.343 445.657C291.843 447.157 293.878 448 296 448H392V458ZM426 256C427.591 256.001 429.116 256.634 430.241 257.759C431.366 258.884 431.998 260.409 432 262V426C431.998 427.591 431.366 429.116 430.241 430.241C429.116 431.366 427.591 431.998 426 432H304V256H426Z" fill="#E51937"/>
<path d="M72 472H120C122.122 472 124.157 471.157 125.657 469.657C127.157 468.156 128 466.122 128 464V448C128.008 443.707 127.148 439.456 125.471 435.503C123.795 431.551 121.337 427.978 118.244 425C119.72 421.356 120.279 417.406 119.871 413.496C119.464 409.586 118.102 405.836 115.905 402.576C113.708 399.316 110.744 396.645 107.274 394.798C103.803 392.952 99.9322 391.986 96.001 391.986C92.0698 391.986 88.1987 392.952 84.7281 394.798C81.2576 396.645 78.2937 399.316 76.0971 402.576C73.9005 405.836 72.5384 409.586 72.1305 413.496C71.7227 417.406 72.2815 421.356 73.758 425C70.6729 427.984 68.2193 431.558 66.543 435.509C64.8667 439.46 64.0019 443.708 64 448V464C64 466.122 64.8429 468.156 66.3431 469.657C67.8434 471.157 69.8783 472 72 472ZM96 408C97.5822 408 99.129 408.469 100.445 409.348C101.76 410.227 102.786 411.477 103.391 412.938C103.997 414.4 104.155 416.009 103.846 417.561C103.538 419.112 102.776 420.538 101.657 421.657C100.538 422.776 99.1126 423.538 97.5607 423.846C96.0089 424.155 94.4003 423.996 92.9385 423.391C91.4767 422.785 90.2273 421.76 89.3482 420.444C88.4692 419.129 88 417.582 88 416C88.0024 413.879 88.846 411.845 90.3458 410.346C91.8456 408.846 93.879 408.002 96 408ZM80 448C80.0057 443.905 81.5804 439.969 84.4 437C87.9528 438.969 91.9482 440.002 96.0103 440.001C100.072 440 104.067 438.965 107.619 436.994C110.44 439.963 112.008 443.905 112 448V456H80V448Z" fill="#E51937"/>
<path d="M144 424H152C154.122 424 156.157 423.157 157.657 421.657C159.157 420.157 160 418.122 160 416C160 413.878 159.157 411.843 157.657 410.343C156.157 408.843 154.122 408 152 408H144C141.878 408 139.843 408.843 138.343 410.343C136.843 411.843 136 413.878 136 416C136 418.122 136.843 420.157 138.343 421.657C139.843 423.157 141.878 424 144 424Z" fill="#E51937"/>
<path d="M144 456H176C178.122 456 180.157 455.157 181.657 453.657C183.157 452.157 184 450.122 184 448C184 445.878 183.157 443.843 181.657 442.343C180.157 440.843 178.122 440 176 440H144C141.878 440 139.843 440.843 138.343 442.343C136.843 443.843 136 445.878 136 448C136 450.122 136.843 452.157 138.343 453.657C139.843 455.157 141.878 456 144 456Z" fill="#E51937"/>
<path d="M176 424H184C186.122 424 188.157 423.157 189.657 421.657C191.157 420.157 192 418.122 192 416C192 413.878 191.157 411.843 189.657 410.343C188.157 408.843 186.122 408 184 408H176C173.878 408 171.843 408.843 170.343 410.343C168.843 411.843 168 413.878 168 416C168 418.122 168.843 420.157 170.343 421.657C171.843 423.157 173.878 424 176 424Z" fill="#E51937"/>
<path d="M368 384C379.825 383.993 391.232 379.62 400.032 371.721C408.833 363.823 414.408 352.953 415.688 341.197C416.968 329.442 413.864 317.627 406.971 308.019C400.077 298.41 389.88 291.685 378.333 289.132C378.183 289.093 378.033 289.058 377.881 289.032C371.36 287.659 364.625 287.659 358.104 289.032C357.963 289.061 357.825 289.093 357.686 289.132C346.141 291.685 335.945 298.408 329.051 308.015C322.158 317.621 319.052 329.433 320.33 341.188C321.608 352.942 327.179 363.812 335.976 371.712C344.773 379.612 356.176 383.988 368 384ZM398.987 328H391.447C391.073 322.643 390.324 317.318 389.207 312.065C393.979 316.286 397.384 321.834 398.987 328ZM391.447 344H398.987C397.384 350.166 393.979 355.714 389.207 359.935C390.324 354.682 391.073 349.357 391.447 344ZM365.547 304.1C366.357 304.039 367.173 304 367.999 304C368.825 304 369.641 304.042 370.451 304.1C373.068 311.834 374.722 319.861 375.377 328H360.622C361.277 319.861 362.931 311.834 365.548 304.1H365.547ZM375.377 344C374.722 352.139 373.068 360.166 370.451 367.9C369.641 367.961 368.825 368 367.999 368C367.173 368 366.357 367.958 365.547 367.9C362.93 360.166 361.276 352.139 360.621 344H375.377ZM346.792 312.065C345.675 317.318 344.927 322.643 344.553 328H337.013C338.616 321.834 342.021 316.286 346.793 312.065H346.792ZM344.553 344C344.928 349.357 345.676 354.682 346.793 359.935C342.021 355.714 338.616 350.166 337.013 344H344.553Z" fill="#E51937"/>
<path d="M384 400H352C349.878 400 347.843 400.843 346.343 402.343C344.843 403.843 344 405.878 344 408C344 410.122 344.843 412.157 346.343 413.657C347.843 415.157 349.878 416 352 416H384C386.122 416 388.157 415.157 389.657 413.657C391.157 412.157 392 410.122 392 408C392 405.878 391.157 403.843 389.657 402.343C388.157 400.843 386.122 400 384 400Z" fill="#E51937"/>
<path d="M172 280C166.462 280 161.049 281.642 156.444 284.719C151.839 287.796 148.251 292.169 146.131 297.285C144.012 302.401 143.458 308.031 144.538 313.463C145.618 318.894 148.285 323.883 152.201 327.799C156.117 331.715 161.106 334.382 166.537 335.462C171.969 336.542 177.599 335.988 182.715 333.869C187.831 331.749 192.204 328.161 195.281 323.556C198.358 318.951 200 313.538 200 308C199.992 300.577 197.039 293.46 191.79 288.21C186.54 282.961 179.423 280.008 172 280ZM172 320C169.627 320 167.307 319.296 165.333 317.978C163.36 316.659 161.822 314.785 160.913 312.592C160.005 310.399 159.768 307.987 160.231 305.659C160.694 303.331 161.837 301.193 163.515 299.515C165.193 297.836 167.331 296.694 169.659 296.231C171.987 295.768 174.399 296.005 176.592 296.913C178.785 297.822 180.659 299.36 181.978 301.333C183.296 303.307 184 305.627 184 308C183.997 311.182 182.731 314.232 180.481 316.481C178.232 318.731 175.182 319.997 172 320Z" fill="#E51937"/>
<path d="M264 328C264 325.878 263.157 323.843 261.657 322.343C260.157 320.843 258.122 320 256 320H232C229.878 320 227.843 320.843 226.343 322.343C224.843 323.843 224 325.878 224 328C224 330.122 224.843 332.157 226.343 333.657C227.843 335.157 229.878 336 232 336H256C258.122 336 260.157 335.157 261.657 333.657C263.157 332.157 264 330.122 264 328Z" fill="#E51937"/>
<path d="M264 392H248C245.878 392 243.843 392.843 242.343 394.343C240.843 395.843 240 397.878 240 400C240 402.122 240.843 404.157 242.343 405.657C243.843 407.157 245.878 408 248 408H264C266.122 408 268.157 407.157 269.657 405.657C271.157 404.157 272 402.122 272 400C272 397.878 271.157 395.843 269.657 394.343C268.157 392.843 266.122 392 264 392Z" fill="#E51937"/>
<path d="M168 208H185.376C187.032 212.677 190.096 216.726 194.148 219.589C198.199 222.453 203.039 223.99 208 223.99C212.961 223.99 217.801 222.453 221.852 219.589C225.904 216.726 228.968 212.677 230.624 208H281.376C283.032 212.677 286.096 216.726 290.148 219.589C294.199 222.453 299.039 223.99 304 223.99C308.961 223.99 313.801 222.453 317.852 219.589C321.904 216.726 324.968 212.677 326.624 208H344C346.122 208 348.157 207.157 349.657 205.657C351.157 204.156 352 202.122 352 200V172C351.994 166.697 349.885 161.614 346.135 157.864C342.386 154.115 337.302 152.006 332 152H324.944L314.472 131.056C312.821 127.726 310.27 124.924 307.108 122.97C303.946 121.016 300.3 119.987 296.583 120H238C234.896 120.007 231.837 120.733 229.061 122.121C226.285 123.509 223.868 125.521 222 128L204 152H186C179.107 152.008 172.498 154.749 167.624 159.624C162.749 164.498 160.008 171.107 160 178V200C160 202.122 160.843 204.156 162.343 205.657C163.843 207.157 165.878 208 168 208ZM208 208C206.418 208 204.871 207.531 203.555 206.652C202.24 205.773 201.214 204.523 200.609 203.061C200.003 201.6 199.845 199.991 200.154 198.439C200.462 196.887 201.224 195.462 202.343 194.343C203.462 193.224 204.887 192.462 206.439 192.154C207.991 191.845 209.6 192.003 211.061 192.609C212.523 193.214 213.773 194.24 214.652 195.555C215.531 196.871 216 198.418 216 200C215.998 202.121 215.154 204.154 213.654 205.654C212.154 207.154 210.121 207.997 208 208ZM304 208C302.418 208 300.871 207.531 299.555 206.652C298.24 205.773 297.214 204.523 296.609 203.061C296.003 201.6 295.845 199.991 296.154 198.439C296.462 196.887 297.224 195.462 298.343 194.343C299.462 193.224 300.887 192.462 302.439 192.154C303.991 191.845 305.6 192.003 307.061 192.609C308.523 193.214 309.773 194.24 310.652 195.555C311.531 196.871 312 198.418 312 200C311.998 202.121 311.154 204.154 309.654 205.654C308.154 207.154 306.121 207.997 304 208ZM272 136H296.583C297.327 135.998 298.056 136.204 298.689 136.595C299.321 136.986 299.831 137.546 300.162 138.212L307.056 152H272V136ZM272 168H332C333.061 168 334.078 168.421 334.828 169.171C335.579 169.922 336 170.939 336 172V192H326.624C324.968 187.323 321.904 183.274 317.852 180.411C313.801 177.547 308.961 176.01 304 176.01C299.039 176.01 294.199 177.547 290.148 180.411C286.096 183.274 283.032 187.323 281.376 192H272V168ZM234.8 137.6C235.174 137.104 235.657 136.702 236.212 136.424C236.767 136.147 237.379 136.001 238 136H256V152H224L234.8 137.6ZM176 178C176.003 175.349 177.057 172.807 178.932 170.932C180.807 169.057 183.349 168.003 186 168H256V192H230.624C228.968 187.323 225.904 183.274 221.852 180.411C217.801 177.547 212.961 176.01 208 176.01C203.039 176.01 198.199 177.547 194.148 180.411C190.096 183.274 187.032 187.323 185.376 192H176V178Z" fill="#E51937"/>
</svg>
