<svg width="512" height="512" viewBox="0 0 512 512" fill="none" xmlns="http://www.w3.org/2000/svg">
<path d="M216 240C220.961 239.994 225.799 238.452 229.849 235.588C233.9 232.723 236.965 228.676 238.624 224H273.376C275.032 228.677 278.096 232.726 282.148 235.589C286.199 238.453 291.039 239.99 296 239.99C300.961 239.99 305.801 238.453 309.852 235.589C313.904 232.726 316.968 228.677 318.624 224H336C338.122 224 340.157 223.157 341.657 221.657C343.157 220.157 344 218.122 344 216V188C343.994 182.698 341.885 177.614 338.135 173.865C334.386 170.115 329.302 168.006 324 168H316.944L303.155 140.422C302.491 139.093 301.469 137.976 300.206 137.195C298.942 136.414 297.486 136 296 136H232C230.758 136 229.533 136.289 228.422 136.845C227.311 137.4 226.345 138.206 225.6 139.2L204 168H194C187.107 168.008 180.498 170.749 175.624 175.624C170.749 180.498 168.008 187.107 168 194V216C168 218.122 168.843 220.157 170.343 221.657C171.843 223.157 173.878 224 176 224H193.376C195.035 228.676 198.1 232.723 202.151 235.588C206.201 238.452 211.039 239.994 216 240ZM216 224C214.418 224 212.871 223.531 211.555 222.652C210.24 221.773 209.214 220.523 208.609 219.061C208.003 217.6 207.845 215.991 208.154 214.439C208.462 212.887 209.224 211.462 210.343 210.343C211.462 209.224 212.887 208.462 214.439 208.154C215.991 207.845 217.6 208.003 219.061 208.609C220.523 209.214 221.773 210.24 222.652 211.555C223.531 212.871 224 214.418 224 216C223.998 218.121 223.154 220.154 221.654 221.654C220.154 223.154 218.121 223.998 216 224ZM296 224C294.418 224 292.871 223.531 291.555 222.652C290.24 221.773 289.214 220.523 288.609 219.061C288.003 217.6 287.845 215.991 288.154 214.439C288.462 212.887 289.224 211.462 290.343 210.343C291.462 209.224 292.887 208.462 294.439 208.154C295.991 207.845 297.6 208.003 299.061 208.609C300.523 209.214 301.773 210.24 302.652 211.555C303.531 212.871 304 214.418 304 216C303.998 218.121 303.154 220.154 301.654 221.654C300.154 223.154 298.121 223.998 296 224ZM299.056 168H272V152H291.056L299.056 168ZM236 152H256V168H224L236 152ZM184 194C184.003 191.349 185.057 188.807 186.932 186.932C188.807 185.057 191.349 184.003 194 184H324C325.061 184 326.078 184.421 326.828 185.172C327.579 185.922 328 186.939 328 188V208H318.624C316.968 203.323 313.904 199.274 309.852 196.411C305.801 193.547 300.961 192.01 296 192.01C291.039 192.01 286.199 193.547 282.148 196.411C278.096 199.274 275.032 203.323 273.376 208H238.624C236.968 203.323 233.904 199.274 229.852 196.411C225.801 193.547 220.961 192.01 216 192.01C211.039 192.01 206.199 193.547 202.148 196.411C198.096 199.274 195.032 203.323 193.376 208H184V194Z" fill="#E51937"/>
<path d="M485.029 289.779C484.102 289.03 483.019 288.498 481.86 288.221C480.701 287.944 479.494 287.93 478.329 288.179L368 311.819L312 299.819V296C312.008 287.696 310.158 279.496 306.586 272H368C370.122 272 372.157 271.157 373.657 269.657C375.157 268.157 376 266.122 376 264V117.132C381.159 111.302 384.005 103.785 384 96V72C384 70.2951 383.453 68.6352 382.438 67.265C382.423 67.244 382.416 67.221 382.4 67.2L358.4 35.2C357.655 34.2064 356.689 33.4 355.578 32.8446C354.467 32.2892 353.242 32 352 32H160C158.758 32 157.533 32.2892 156.422 32.8446C155.311 33.4 154.345 34.2064 153.6 35.2L129.6 67.2C129.581 67.225 129.572 67.251 129.555 67.275C128.545 68.6432 128 70.2993 128 72V96C127.995 103.785 130.841 111.302 136 117.132V264C136 266.122 136.843 268.157 138.343 269.657C139.843 271.157 141.878 272 144 272H205.414C201.842 279.496 199.992 287.696 200 296V299.819L144 311.819L33.676 288.178C32.5097 287.928 31.3022 287.942 30.142 288.219C28.9818 288.496 27.8983 289.029 26.9707 289.779C26.0431 290.529 25.2949 291.477 24.7809 292.553C24.2669 293.63 24.0001 294.807 24 296V464C24.0001 465.831 24.628 467.606 25.7789 469.029C26.9298 470.453 28.5341 471.438 30.324 471.822L142.324 495.822C142.331 495.822 142.337 495.822 142.343 495.822C143.442 496.057 144.577 496.057 145.676 495.822L256 472.182L366.324 495.822C367.42 496.128 368.58 496.128 369.676 495.822L481.676 471.822C483.466 471.438 485.07 470.453 486.221 469.029C487.372 467.606 488 465.831 488 464V296C488 294.807 487.733 293.629 487.219 292.553C486.705 291.477 485.957 290.529 485.029 289.779ZM424 316.182V353.754L376 365.754V326.467L424 316.182ZM360 365.754L312 353.754V316.182L360 326.467V365.754ZM284.284 328.4L256 356.687L227.716 328.4C221.504 322.219 217.512 314.156 216.363 305.469C216.352 305.349 216.335 305.228 216.318 305.107C216.11 303.451 216.004 301.785 216 300.116V296C216 285.391 220.214 275.217 227.716 267.716C235.217 260.214 245.391 256 256 256C266.609 256 276.783 260.214 284.284 267.716C291.786 275.217 296 285.391 296 296V300.118C296.014 305.373 294.986 310.578 292.975 315.433C290.964 320.287 288.01 324.695 284.284 328.4ZM280 376C280 377.991 271.488 384 256 384C240.512 384 232 377.991 232 376C232 374.832 236.169 370.887 245.679 368.993L250.343 373.657C251.086 374.4 251.968 374.989 252.938 375.391C253.909 375.793 254.949 376 256 376C257.051 376 258.091 375.793 259.062 375.391C260.032 374.989 260.914 374.4 261.657 373.657L266.32 368.994C275.838 370.9 280 374.857 280 376ZM144 96V80H176V96C176 100.243 174.314 104.313 171.314 107.314C168.313 110.314 164.243 112 160 112C155.757 112 151.687 110.314 148.686 107.314C145.686 104.313 144 100.243 144 96ZM229.754 48L225.754 64H196.944L204.944 48H229.754ZM265.754 48L269.754 64H242.246L246.246 48H265.754ZM307.054 48L315.054 64H286.244L282.244 48H307.054ZM192 80H224V96C224 100.243 222.314 104.313 219.314 107.314C216.313 110.314 212.243 112 208 112C203.757 112 199.687 110.314 196.686 107.314C193.686 104.313 192 100.243 192 96V80ZM240 80H272V96C272 100.243 270.314 104.313 267.314 107.314C264.313 110.314 260.243 112 256 112C251.757 112 247.687 110.314 244.686 107.314C241.686 104.313 240 100.243 240 96V80ZM288 80H320V96C320 100.243 318.314 104.313 315.314 107.314C312.313 110.314 308.243 112 304 112C299.757 112 295.687 110.314 292.686 107.314C289.686 104.313 288 100.243 288 96V80ZM336 80H368V96C368 100.243 366.314 104.313 363.314 107.314C360.313 110.314 356.243 112 352 112C347.757 112 343.687 110.314 340.686 107.314C337.686 104.313 336 100.243 336 96V80ZM360 64H332.944L324.944 48H348L360 64ZM164 48H187.056L179.056 64H152L164 48ZM152 126.987C157.724 128.463 163.744 128.324 169.393 126.584C175.042 124.844 180.099 121.572 184 117.132C186.997 120.547 190.688 123.282 194.827 125.156C198.966 127.03 203.457 128 208 128C212.543 128 217.034 127.03 221.173 125.156C225.312 123.282 229.003 120.547 232 117.132C234.997 120.547 238.688 123.282 242.827 125.156C246.966 127.03 251.457 128 256 128C260.543 128 265.034 127.03 269.173 125.156C273.312 123.282 277.003 120.547 280 117.132C282.997 120.547 286.688 123.282 290.827 125.156C294.966 127.03 299.457 128 304 128C308.543 128 313.034 127.03 317.173 125.156C321.312 123.282 325.003 120.547 328 117.132C331.901 121.572 336.958 124.844 342.607 126.584C348.256 128.324 354.276 128.463 360 126.987V256H295.139C284.693 245.745 270.639 240 256 240C241.362 240 227.308 245.745 216.862 256H152V126.987ZM192 317.9V361.97L152 373.398V326.467L192 317.9ZM40 362.606L136 390.034V413.394L40 385.966V362.606ZM136 326.467V373.394L40 345.966V305.9L136 326.467ZM40 402.606L136 430.034V478.1L40 457.533V402.606ZM152 430.034L192 418.606V469.533L152 478.1V430.034ZM254.324 456.178L208 466.1V408C208 406.762 207.713 405.54 207.16 404.431C206.608 403.323 205.806 402.358 204.817 401.612C203.828 400.867 202.68 400.361 201.462 400.134C200.244 399.908 198.991 399.967 197.8 400.308L152 413.394V390.034L202.2 375.692C203.871 375.214 205.341 374.205 206.388 372.817C207.434 371.429 208 369.738 208 368V329C210.357 332.899 213.177 336.497 216.4 339.717L232.857 356.174C222.4 360.458 216 367.656 216 376C216 389.682 233.2 400 256 400C278.8 400 296 389.682 296 376C296 367.55 289.7 360.4 279.173 356.141L295.6 339.716C295.737 339.578 295.865 339.433 296 339.294V360C296 361.784 296.596 363.517 297.695 364.923C298.793 366.329 300.329 367.328 302.06 367.761L360 382.246V413.754L305.94 400.239C304.761 399.944 303.529 399.922 302.34 400.174C301.151 400.427 300.035 400.946 299.077 401.695C298.118 402.443 297.343 403.399 296.81 404.492C296.277 405.585 296 406.784 296 408V464.39L257.676 456.178C256.571 455.94 255.429 455.94 254.324 456.178ZM312 467.818V418.246L360 430.246V478.1L312 467.818ZM376 430.246L424 418.246V467.818L376 478.1V430.246ZM472 457.533L440 464.39V408C440 406.784 439.723 405.585 439.19 404.492C438.657 403.399 437.882 402.443 436.923 401.695C435.965 400.946 434.849 400.427 433.66 400.174C432.471 399.922 431.239 399.944 430.06 400.239L376 413.754V382.246L433.94 367.761C435.671 367.328 437.207 366.329 438.305 364.923C439.404 363.517 440 361.784 440 360V312.753L472 305.896V457.533Z" fill="#E51937"/>
<path d="M256 272C251.253 272 246.613 273.408 242.666 276.045C238.72 278.682 235.643 282.43 233.827 286.816C232.01 291.201 231.535 296.027 232.461 300.682C233.387 305.338 235.673 309.614 239.029 312.971C242.386 316.327 246.662 318.613 251.318 319.539C255.973 320.465 260.799 319.99 265.184 318.173C269.57 316.357 273.318 313.28 275.955 309.334C278.592 305.387 280 300.747 280 296C279.993 289.637 277.462 283.537 272.963 279.037C268.463 274.538 262.363 272.007 256 272ZM256 304C254.418 304 252.871 303.531 251.555 302.652C250.24 301.773 249.214 300.523 248.609 299.061C248.003 297.6 247.845 295.991 248.154 294.439C248.462 292.887 249.224 291.462 250.343 290.343C251.462 289.224 252.887 288.462 254.439 288.154C255.991 287.845 257.6 288.003 259.061 288.609C260.523 289.214 261.773 290.24 262.652 291.555C263.531 292.871 264 294.418 264 296C263.998 298.121 263.154 300.154 261.654 301.654C260.154 303.154 258.121 303.998 256 304Z" fill="#E51937"/>
</svg>
