<svg width="512" height="512" viewBox="0 0 512 512" fill="none" xmlns="http://www.w3.org/2000/svg">
<path d="M238 80C234.896 80.0072 231.837 80.7332 229.061 82.1212C226.285 83.5092 223.868 85.5214 222 88L204 112H186C179.107 112.008 172.498 114.749 167.624 119.624C162.749 124.498 160.008 131.107 160 138V160C160 162.122 160.843 164.157 162.343 165.657C163.843 167.157 165.878 168 168 168H185.376C187.032 172.677 190.096 176.726 194.148 179.589C198.199 182.453 203.039 183.99 208 183.99C212.961 183.99 217.801 182.453 221.852 179.589C225.904 176.726 228.968 172.677 230.624 168H281.376C283.032 172.677 286.096 176.726 290.148 179.589C294.199 182.453 299.039 183.99 304 183.99C308.961 183.99 313.801 182.453 317.852 179.589C321.904 176.726 324.968 172.677 326.624 168H344C346.122 168 348.157 167.157 349.657 165.657C351.157 164.157 352 162.122 352 160V132C351.994 126.698 349.885 121.614 346.135 117.865C342.386 114.115 337.302 112.006 332 112H324.944L314.472 91.056C312.821 87.7257 310.27 84.9246 307.108 82.9704C303.946 81.0163 300.3 79.9872 296.583 80H238ZM208 168C206.418 168 204.871 167.531 203.555 166.652C202.24 165.773 201.214 164.523 200.609 163.061C200.003 161.6 199.845 159.991 200.154 158.439C200.462 156.887 201.224 155.462 202.343 154.343C203.462 153.224 204.887 152.462 206.439 152.154C207.991 151.845 209.6 152.003 211.061 152.609C212.523 153.214 213.773 154.24 214.652 155.555C215.531 156.871 216 158.418 216 160C215.998 162.121 215.154 164.154 213.654 165.654C212.154 167.154 210.121 167.998 208 168ZM256 152H230.624C228.968 147.323 225.904 143.274 221.852 140.411C217.801 137.547 212.961 136.01 208 136.01C203.039 136.01 198.199 137.547 194.148 140.411C190.096 143.274 187.032 147.323 185.376 152H176V138C176.003 135.349 177.057 132.807 178.932 130.932C180.807 129.057 183.349 128.003 186 128H256V152ZM256 112H224L234.8 97.6C235.174 97.1043 235.657 96.7019 236.212 96.4243C236.767 96.1467 237.379 96.0015 238 96H256V112ZM304 168C302.418 168 300.871 167.531 299.555 166.652C298.24 165.773 297.214 164.523 296.609 163.061C296.003 161.6 295.845 159.991 296.154 158.439C296.462 156.887 297.224 155.462 298.343 154.343C299.462 153.224 300.887 152.462 302.439 152.154C303.991 151.845 305.6 152.003 307.061 152.609C308.523 153.214 309.773 154.24 310.652 155.555C311.531 156.871 312 158.418 312 160C311.998 162.121 311.154 164.154 309.654 165.654C308.154 167.154 306.121 167.998 304 168ZM320 128H332C333.061 128 334.078 128.421 334.828 129.172C335.579 129.922 336 130.939 336 132V152H326.624C324.968 147.323 321.904 143.274 317.852 140.411C313.801 137.547 308.961 136.01 304 136.01C299.039 136.01 294.199 137.547 290.148 140.411C286.096 143.274 283.032 147.323 281.376 152H272V128H320ZM300.162 98.212L307.056 112H272V96H296.583C297.327 95.9978 298.056 96.2038 298.689 96.5947C299.321 96.9856 299.831 97.5459 300.162 98.212V98.212Z" fill="#E51937"/>
<path d="M200 200C192.089 200 184.355 202.346 177.777 206.741C171.199 211.136 166.072 217.384 163.045 224.693C160.017 232.002 159.225 240.044 160.769 247.804C162.312 255.563 166.122 262.69 171.716 268.284C177.31 273.878 184.437 277.688 192.196 279.231C199.956 280.775 207.998 279.983 215.307 276.955C222.616 273.928 228.864 268.801 233.259 262.223C237.654 255.645 240 247.911 240 240C239.988 229.395 235.77 219.228 228.271 211.729C220.772 204.23 210.605 200.012 200 200V200ZM200 264C195.253 264 190.613 262.592 186.666 259.955C182.72 257.318 179.643 253.57 177.827 249.184C176.01 244.799 175.535 239.973 176.461 235.318C177.387 230.662 179.673 226.386 183.029 223.029C186.386 219.673 190.662 217.387 195.318 216.461C199.973 215.535 204.799 216.01 209.184 217.827C213.57 219.643 217.318 222.72 219.955 226.666C222.592 230.613 224 235.253 224 240C223.993 246.363 221.462 252.463 216.962 256.962C212.463 261.462 206.363 263.993 200 264V264Z" fill="#E51937"/>
<path d="M208 236.687V232C208 229.878 207.157 227.843 205.657 226.343C204.157 224.843 202.122 224 200 224C197.878 224 195.843 224.843 194.343 226.343C192.843 227.843 192 229.878 192 232V240C192 241.051 192.207 242.091 192.609 243.062C193.011 244.032 193.6 244.914 194.343 245.657L202.343 253.657C203.843 255.157 205.878 256 208 256C210.122 256 212.157 255.157 213.657 253.657C215.157 252.157 216 250.122 216 248C216 245.878 215.157 243.843 213.657 242.343L208 236.687Z" fill="#E51937"/>
<path d="M298.157 226.57L298.415 226.313C299.897 224.835 301.905 224.005 303.998 224.005C306.091 224.005 308.098 224.835 309.58 226.313L310.552 227.285C311.013 227.743 311.379 228.289 311.627 228.89C311.876 229.491 312.003 230.135 312 230.785C312 232.907 312.843 234.942 314.343 236.442C315.844 237.942 317.878 238.785 320 238.785C322.122 238.785 324.157 237.942 325.657 236.442C327.157 234.942 328 232.907 328 230.785C328.008 228.034 327.469 225.309 326.417 222.767C325.364 220.226 323.818 217.918 321.867 215.978L320.9 215C318.389 212.494 315.348 210.584 312 209.41V208C312 205.878 311.157 203.843 309.657 202.343C308.157 200.843 306.122 200 304 200C301.878 200 299.844 200.843 298.343 202.343C296.843 203.843 296 205.878 296 208V209.415C292.647 210.592 289.599 212.505 287.083 215.015L286.883 215.215C284.691 217.399 282.954 219.997 281.773 222.857C280.591 225.717 279.989 228.783 280 231.878V232.071C279.986 236.368 281.176 240.583 283.435 244.238C285.694 247.893 288.932 250.843 292.781 252.752L309.267 260.993C310.088 261.404 310.779 262.035 311.262 262.816C311.744 263.597 312 264.497 312 265.415C312 266.333 311.744 267.233 311.262 268.014C310.779 268.795 310.088 269.426 309.267 269.837C307.631 270.65 305.828 271.074 304 271.074C302.173 271.074 300.37 270.65 298.733 269.837C297.91 269.429 297.218 268.798 296.735 268.017C296.251 267.235 295.997 266.334 296 265.415C296 263.293 295.157 261.258 293.657 259.758C292.157 258.258 290.122 257.415 288 257.415C285.878 257.415 283.844 258.258 282.343 259.758C280.843 261.258 280 263.293 280 265.415C279.987 269.307 281.065 273.126 283.112 276.437C285.158 279.748 288.091 282.42 291.578 284.149C292.999 284.86 294.478 285.445 296 285.9V288C296 290.122 296.843 292.157 298.343 293.657C299.844 295.157 301.878 296 304 296C306.122 296 308.157 295.157 309.657 293.657C311.157 292.157 312 290.122 312 288V285.9C313.522 285.447 315.002 284.862 316.423 284.152C319.902 282.413 322.828 279.739 324.873 276.43C326.918 273.122 328.001 269.309 328.001 265.419C328.001 261.53 326.918 257.717 324.873 254.409C322.828 251.1 319.902 248.426 316.423 246.687L299.939 238.445C298.753 237.857 297.756 236.949 297.06 235.823C296.364 234.697 295.997 233.399 296.002 232.075V231.882C295.994 230.898 296.18 229.923 296.55 229.011C296.92 228.1 297.466 227.27 298.157 226.57Z" fill="#E51937"/>
<path d="M224 304H176C173.878 304 171.843 304.843 170.343 306.343C168.843 307.843 168 309.878 168 312C168 314.122 168.843 316.157 170.343 317.657C171.843 319.157 173.878 320 176 320H224C226.122 320 228.157 319.157 229.657 317.657C231.157 316.157 232 314.122 232 312C232 309.878 231.157 307.843 229.657 306.343C228.157 304.843 226.122 304 224 304Z" fill="#E51937"/>
<path d="M208 336H176C173.878 336 171.843 336.843 170.343 338.343C168.843 339.843 168 341.878 168 344C168 346.122 168.843 348.157 170.343 349.657C171.843 351.157 173.878 352 176 352H208C210.122 352 212.157 351.157 213.657 349.657C215.157 348.157 216 346.122 216 344C216 341.878 215.157 339.843 213.657 338.343C212.157 336.843 210.122 336 208 336Z" fill="#E51937"/>
<path d="M296 16H216.607C214.485 16 212.45 16.8429 210.95 18.3431C209.45 19.8434 208.607 21.8783 208.607 24V32H128C125.878 32 123.843 32.8429 122.343 34.3431C120.843 35.8434 120 37.8783 120 40H104C99.7581 40.005 95.6913 41.6924 92.6918 44.6918C89.6924 47.6913 88.005 51.7581 88 56V424C88.005 428.242 89.6924 432.309 92.6918 435.308C95.6913 438.308 99.7581 439.995 104 440H320V488C320 490.122 320.843 492.157 322.343 493.657C323.843 495.157 325.878 496 328 496H416C418.122 496 420.157 495.157 421.657 493.657C423.157 492.157 424 490.122 424 488V417.7L455.311 347.252C456.121 345.428 456.221 343.367 455.589 341.473L423.589 245.473C423.059 243.88 422.04 242.494 420.678 241.511C419.316 240.529 417.679 240 416 240H392V40C392 37.8783 391.157 35.8434 389.657 34.3431C388.157 32.8429 386.122 32 384 32H304V24C304 21.8783 303.157 19.8434 301.657 18.3431C300.157 16.8429 298.122 16 296 16V16ZM224.607 32H288V46C288 46.5304 287.789 47.0391 287.414 47.4142C287.039 47.7893 286.53 48 286 48H226.607C226.077 48 225.568 47.7893 225.193 47.4142C224.818 47.0391 224.607 46.5304 224.607 46V32ZM320 424H104V56H120V400C120 402.122 120.843 404.157 122.343 405.657C123.843 407.157 125.878 408 128 408H320V424ZM384 379C386.122 379 388.157 378.157 389.657 376.657C391.157 375.157 392 373.122 392 371V256H410.234L439.429 343.586L408.689 412.751C408.235 413.774 408 414.881 408 416V480H336V380.711C335.985 375.193 337.064 369.727 339.175 364.629C341.286 359.531 344.388 354.902 348.3 351.011L357.656 341.655C359.156 340.155 359.999 338.121 360 336V310C360.004 306.288 361.48 302.73 364.105 300.105C366.73 297.48 370.288 296.004 374 296H376V371C376 373.122 376.843 375.157 378.343 376.657C379.843 378.157 381.878 379 384 379ZM280 336V320H344V332.687L340.687 336H280ZM376 48V280H374C367.087 280.008 360.387 282.4 355.032 286.771C349.676 291.143 345.992 297.228 344.6 304H272C269.878 304 267.843 304.843 266.343 306.343C264.843 307.843 264 309.878 264 312V344C264 346.122 264.843 348.157 266.343 349.657C267.843 351.157 269.878 352 272 352H327.6C322.603 360.742 319.983 370.641 320 380.711V392H136V48H208.725C209.221 52.3972 211.318 56.458 214.616 59.4086C217.914 62.3593 222.182 63.9936 226.607 64H286C290.425 63.9938 294.693 62.3596 297.991 59.4089C301.289 56.4582 303.386 52.3972 303.882 48H376Z" fill="#E51937"/>
</svg>
