<svg width="512" height="512" viewBox="0 0 512 512" fill="none" xmlns="http://www.w3.org/2000/svg">
<path d="M468 112H24C21.8783 112 19.8434 112.843 18.3431 114.343C16.8429 115.843 16 117.878 16 120V392C16 394.122 16.8429 396.157 18.3431 397.657C19.8434 399.157 21.8783 400 24 400H468C475.423 399.992 482.54 397.039 487.79 391.79C493.039 386.54 495.992 379.423 496 372V140C495.992 132.577 493.039 125.46 487.79 120.21C482.54 114.961 475.423 112.008 468 112V112ZM216 303.333C204.815 301.442 194.661 295.65 187.339 286.986C180.016 278.321 175.999 267.344 175.999 256C175.999 244.656 180.016 233.679 187.339 225.014C194.661 216.35 204.815 210.558 216 208.667V303.333ZM216 192.518C200.535 194.463 186.312 201.986 176.002 213.674C165.691 225.363 160.001 240.414 160.001 256C160.001 271.586 165.691 286.637 176.002 298.326C186.312 310.014 200.535 317.537 216 319.482V352H86.987C85.547 346.47 82.6575 341.424 78.6168 337.383C74.576 333.342 69.5302 330.452 64 329.012V182.988C69.5302 181.548 74.576 178.658 78.6168 174.617C82.6575 170.576 85.547 165.53 86.987 160H216V192.518ZM216 144H80C77.8783 144 75.8434 144.843 74.3431 146.343C72.8429 147.843 72 149.878 72 152C71.995 156.242 70.3076 160.309 67.3082 163.308C64.3087 166.308 60.2419 167.995 56 168C53.8783 168 51.8434 168.843 50.3431 170.343C48.8429 171.843 48 173.878 48 176V336C48 338.122 48.8429 340.157 50.3431 341.657C51.8434 343.157 53.8783 344 56 344C60.2419 344.005 64.3087 345.692 67.3082 348.692C70.3076 351.691 71.995 355.758 72 360C72 362.122 72.8429 364.157 74.3431 365.657C75.8434 367.157 77.8783 368 80 368H216V384H32V128H216V144ZM480 372C479.997 375.182 478.731 378.232 476.481 380.481C474.232 382.731 471.182 383.997 468 384H232V336H320C322.122 336 324.157 335.157 325.657 333.657C327.157 332.157 328 330.122 328 328C328 325.878 327.157 323.843 325.657 322.343C324.157 320.843 322.122 320 320 320H232V288H256C258.122 288 260.157 287.157 261.657 285.657C263.157 284.157 264 282.122 264 280C264 277.878 263.157 275.843 261.657 274.343C260.157 272.843 258.122 272 256 272H232V128H468C471.182 128.003 474.232 129.269 476.481 131.519C478.731 133.768 479.997 136.818 480 140V372Z" fill="#E51937"/>
<path d="M120 280C124.747 280 129.387 278.592 133.334 275.955C137.28 273.318 140.357 269.57 142.173 265.184C143.99 260.799 144.465 255.973 143.539 251.318C142.613 246.662 140.327 242.386 136.971 239.029C133.614 235.673 129.338 233.387 124.682 232.461C120.027 231.535 115.201 232.01 110.816 233.827C106.43 235.643 102.682 238.72 100.045 242.666C97.4076 246.613 96 251.253 96 256C96.0071 262.363 98.538 268.463 103.037 272.963C107.537 277.462 113.637 279.993 120 280V280ZM120 248C121.582 248 123.129 248.469 124.445 249.348C125.76 250.227 126.786 251.477 127.391 252.939C127.997 254.4 128.155 256.009 127.846 257.561C127.538 259.113 126.776 260.538 125.657 261.657C124.538 262.776 123.113 263.538 121.561 263.846C120.009 264.155 118.4 263.997 116.939 263.391C115.477 262.786 114.227 261.76 113.348 260.445C112.469 259.129 112 257.582 112 256C112.002 253.879 112.846 251.846 114.346 250.346C115.846 248.846 117.879 248.002 120 248V248Z" fill="#E51937"/>
<path d="M456 144H384C381.878 144 379.843 144.843 378.343 146.343C376.843 147.843 376 149.878 376 152V216C376 218.122 376.843 220.157 378.343 221.657C379.843 223.157 381.878 224 384 224H456C458.122 224 460.157 223.157 461.657 221.657C463.157 220.157 464 218.122 464 216V152C464 149.878 463.157 147.843 461.657 146.343C460.157 144.843 458.122 144 456 144ZM408 208H392V160H408V208ZM448 208H424V192H448V208ZM448 176H424V160H448V176Z" fill="#E51937"/>
<path d="M304 272H288C285.878 272 283.843 272.843 282.343 274.343C280.843 275.843 280 277.878 280 280C280 282.122 280.843 284.157 282.343 285.657C283.843 287.157 285.878 288 288 288H304C306.122 288 308.157 287.157 309.657 285.657C311.157 284.157 312 282.122 312 280C312 277.878 311.157 275.843 309.657 274.343C308.157 272.843 306.122 272 304 272Z" fill="#E51937"/>
<path d="M352 272H336C333.878 272 331.843 272.843 330.343 274.343C328.843 275.843 328 277.878 328 280C328 282.122 328.843 284.157 330.343 285.657C331.843 287.157 333.878 288 336 288H352C354.122 288 356.157 287.157 357.657 285.657C359.157 284.157 360 282.122 360 280C360 277.878 359.157 275.843 357.657 274.343C356.157 272.843 354.122 272 352 272Z" fill="#E51937"/>
<path d="M456 304H392C389.878 304 387.843 304.843 386.343 306.343C384.843 307.843 384 309.878 384 312V360C384 362.122 384.843 364.157 386.343 365.657C387.843 367.157 389.878 368 392 368H456C458.122 368 460.157 367.157 461.657 365.657C463.157 364.157 464 362.122 464 360V312C464 309.878 463.157 307.843 461.657 306.343C460.157 304.843 458.122 304 456 304ZM448 352H400V320H448V352Z" fill="#E51937"/>
<path d="M312 432C314.122 432 316.157 431.157 317.657 429.657C319.157 428.157 320 426.122 320 424C320 421.878 319.157 419.843 317.657 418.343C316.157 416.843 314.122 416 312 416H272C269.878 416 267.843 416.843 266.343 418.343C264.843 419.843 264 421.878 264 424C264 426.122 264.843 428.157 266.343 429.657C267.843 431.157 269.878 432 272 432H312Z" fill="#E51937"/>
<path d="M240 432C242.122 432 244.157 431.157 245.657 429.657C247.157 428.157 248 426.122 248 424C248 421.878 247.157 419.843 245.657 418.343C244.157 416.843 242.122 416 240 416H224C221.878 416 219.843 416.843 218.343 418.343C216.843 419.843 216 421.878 216 424C216 426.122 216.843 428.157 218.343 429.657C219.843 431.157 221.878 432 224 432H240Z" fill="#E51937"/>
<path d="M192 432C194.122 432 196.157 431.157 197.657 429.657C199.157 428.157 200 426.122 200 424C200 421.878 199.157 419.843 197.657 418.343C196.157 416.843 194.122 416 192 416H184C181.878 416 179.843 416.843 178.343 418.343C176.843 419.843 176 421.878 176 424C176 426.122 176.843 428.157 178.343 429.657C179.843 431.157 181.878 432 184 432H192Z" fill="#E51937"/>
</svg>
