<svg width="512" height="512" viewBox="0 0 512 512" fill="none" xmlns="http://www.w3.org/2000/svg">
<path d="M477.206 161.926L421.206 113.926C419.765 112.69 417.931 112.007 416.033 112H416H241.328C233.851 112.005 226.499 113.91 219.961 117.537L157.369 152.31L54.783 168.093C53.6853 168.262 52.6347 168.658 51.6983 169.255C50.7619 169.852 49.9601 170.638 49.344 171.562L33.344 195.562C32.468 196.876 32.0003 198.42 32 200V240C31.9999 241.679 32.5281 243.316 33.5098 244.678C34.4916 246.04 35.8771 247.059 37.47 247.59L82.249 262.516C85.2899 272.105 91.2669 280.496 99.3357 286.504C107.404 292.511 117.157 295.832 127.215 295.996C137.273 296.16 147.129 293.159 155.389 287.418C163.65 281.676 169.897 273.485 173.249 264H354.749C358.055 273.36 364.182 281.464 372.286 287.196C380.39 292.928 390.073 296.006 399.999 296.006C409.925 296.006 419.608 292.928 427.712 287.196C435.816 281.464 441.943 273.36 445.249 264H456C457.599 264 459.161 263.521 460.485 262.625C461.809 261.728 462.834 260.456 463.428 258.971L479.428 218.971C479.806 218.026 480 217.018 480 216V168C480 166.846 479.75 165.706 479.268 164.657C478.786 163.609 478.082 162.677 477.206 161.926ZM456 208C453.878 208 451.843 207.157 450.343 205.657C448.843 204.157 448 202.122 448 200C448 197.878 448.843 195.843 450.343 194.343C451.843 192.843 453.878 192 456 192H464V208H456ZM288 248V168H352V197.437L315.883 248H288ZM288 152V128H399.355L380.155 152H288ZM227.73 131.523C231.892 129.215 236.571 128.003 241.33 128H272V152H190.873L227.73 131.523ZM78 180.71L76.972 183.794C76.1775 186.185 74.6496 188.265 72.6054 189.738C70.5612 191.211 68.1047 192.003 65.585 192H54.948L60.701 183.371L78 180.71ZM48 232H82.752C81.275 236.169 80.3851 240.522 80.108 244.936L48 234.233V232ZM128 280C121.671 280 115.484 278.123 110.222 274.607C104.959 271.091 100.858 266.093 98.4359 260.246C96.0138 254.399 95.3801 247.965 96.6149 241.757C97.8496 235.55 100.897 229.848 105.373 225.373C109.848 220.897 115.55 217.85 121.757 216.615C127.965 215.38 134.399 216.014 140.246 218.436C146.093 220.858 151.091 224.959 154.607 230.222C158.123 235.484 160 241.671 160 248C159.99 256.484 156.616 264.618 150.617 270.617C144.618 276.616 136.484 279.99 128 280ZM128 200C121.252 199.998 114.58 201.423 108.42 204.18C102.261 206.938 96.7545 210.966 92.261 216H48V208H65.585C71.463 208.005 77.1931 206.158 81.9615 202.721C86.73 199.284 90.2942 194.432 92.148 188.854L95.59 178.53C95.651 178.348 95.696 178.164 95.743 177.98L160.612 168H272V248H176C175.986 235.274 170.924 223.073 161.926 214.074C152.927 205.076 140.726 200.014 128 200V200ZM352 248H335.546L366.51 204.65C367.479 203.293 368 201.667 368 200V168H384C385.2 168 386.384 167.731 387.465 167.212C388.547 166.692 389.497 165.936 390.247 165L417.077 131.462L464 171.68V176H456C452.16 175.999 448.376 176.919 444.966 178.684C441.555 180.449 438.618 183.006 436.402 186.142C434.185 189.277 432.753 192.899 432.227 196.702C431.7 200.506 432.094 204.38 433.376 208H426.494C419.265 203.203 410.869 200.456 402.202 200.052C393.535 199.648 384.921 201.603 377.277 205.707C369.633 209.812 363.245 215.913 358.794 223.36C354.342 230.808 351.995 239.324 352 248V248ZM400 280C393.671 280 387.484 278.123 382.222 274.607C376.959 271.091 372.858 266.093 370.436 260.246C368.014 254.399 367.38 247.965 368.615 241.757C369.85 235.55 372.897 229.848 377.373 225.373C381.848 220.897 387.55 217.85 393.757 216.615C399.965 215.38 406.399 216.014 412.246 218.436C418.093 220.858 423.091 224.959 426.607 230.222C430.123 235.484 432 241.671 432 248C431.99 256.484 428.616 264.618 422.617 270.617C416.618 276.616 408.484 279.99 400 280ZM450.584 248H448C448.007 239.57 445.779 231.288 441.542 224H460.184L450.584 248Z" fill="#E51937"/>
<path d="M400 224C395.253 224 390.613 225.408 386.666 228.045C382.72 230.682 379.643 234.43 377.827 238.816C376.01 243.201 375.535 248.027 376.461 252.682C377.387 257.338 379.673 261.614 383.029 264.971C386.386 268.327 390.662 270.613 395.318 271.539C399.973 272.465 404.799 271.99 409.184 270.173C413.57 268.357 417.318 265.28 419.955 261.334C422.592 257.387 424 252.747 424 248C423.993 241.637 421.462 235.537 416.962 231.038C412.463 226.538 406.363 224.007 400 224V224ZM400 256C398.418 256 396.871 255.531 395.555 254.652C394.24 253.773 393.214 252.523 392.609 251.061C392.003 249.6 391.845 247.991 392.154 246.439C392.462 244.887 393.224 243.462 394.343 242.343C395.462 241.224 396.887 240.462 398.439 240.154C399.991 239.845 401.6 240.003 403.061 240.609C404.523 241.214 405.773 242.24 406.652 243.555C407.531 244.871 408 246.418 408 248C407.998 250.121 407.154 252.154 405.654 253.654C404.154 255.154 402.121 255.998 400 256Z" fill="#E51937"/>
<path d="M128 224C123.253 224 118.613 225.408 114.666 228.045C110.72 230.682 107.643 234.43 105.827 238.816C104.01 243.201 103.535 248.027 104.461 252.682C105.387 257.338 107.673 261.614 111.029 264.971C114.386 268.327 118.662 270.613 123.318 271.539C127.973 272.465 132.799 271.99 137.184 270.173C141.57 268.357 145.318 265.28 147.955 261.334C150.592 257.387 152 252.747 152 248C151.993 241.637 149.462 235.537 144.962 231.038C140.463 226.538 134.363 224.007 128 224V224ZM128 256C126.418 256 124.871 255.531 123.555 254.652C122.24 253.773 121.214 252.523 120.609 251.061C120.003 249.6 119.845 247.991 120.154 246.439C120.462 244.887 121.224 243.462 122.343 242.343C123.462 241.224 124.887 240.462 126.439 240.154C127.991 239.845 129.6 240.003 131.061 240.609C132.523 241.214 133.773 242.24 134.652 243.555C135.531 244.871 136 246.418 136 248C135.998 250.121 135.154 252.154 133.654 253.654C132.154 255.154 130.121 255.998 128 256V256Z" fill="#E51937"/>
<path d="M328 184H312C309.878 184 307.843 184.843 306.343 186.343C304.843 187.843 304 189.878 304 192C304 194.122 304.843 196.157 306.343 197.657C307.843 199.157 309.878 200 312 200H328C330.122 200 332.157 199.157 333.657 197.657C335.157 196.157 336 194.122 336 192C336 189.878 335.157 187.843 333.657 186.343C332.157 184.843 330.122 184 328 184Z" fill="#E51937"/>
<path d="M248 184H232C229.878 184 227.843 184.843 226.343 186.343C224.843 187.843 224 189.878 224 192C224 194.122 224.843 196.157 226.343 197.657C227.843 199.157 229.878 200 232 200H248C250.122 200 252.157 199.157 253.657 197.657C255.157 196.157 256 194.122 256 192C256 189.878 255.157 187.843 253.657 186.343C252.157 184.843 250.122 184 248 184Z" fill="#E51937"/>
<path d="M292.437 335.563L273.431 335.097L267.113 317.167C266.306 314.813 264.778 312.773 262.748 311.334C260.717 309.896 258.285 309.133 255.797 309.152C253.309 309.132 250.877 309.895 248.846 311.333C246.815 312.771 245.288 314.811 244.48 317.165L238.159 335.1L219.153 335.566C216.669 335.626 214.266 336.455 212.273 337.939C210.281 339.423 208.798 341.489 208.03 343.852C207.262 346.215 207.246 348.757 207.985 351.129C208.723 353.502 210.179 355.586 212.153 357.095L227.253 368.645L221.824 386.865C221.103 389.247 221.142 391.795 221.935 394.154C222.729 396.513 224.237 398.566 226.251 400.028C228.265 401.491 230.684 402.29 233.173 402.314C235.661 402.339 238.096 401.588 240.138 400.165L255.788 389.371L271.438 400.164C273.482 401.574 275.914 402.315 278.397 402.285C280.88 402.255 283.293 401.455 285.302 399.996C287.312 398.536 288.819 396.49 289.616 394.138C290.413 391.786 290.461 389.244 289.753 386.864L284.324 368.644L299.424 357.094C301.398 355.585 302.854 353.501 303.592 351.128C304.331 348.756 304.315 346.214 303.547 343.851C302.779 341.488 301.296 339.422 299.304 337.938C297.311 336.454 294.908 335.625 292.424 335.565L292.437 335.563ZM272.42 357.607C270.494 359.091 269.061 361.123 268.31 363.435C267.558 365.748 267.523 368.233 268.209 370.566L271.184 380.55L262.606 374.635C260.599 373.263 258.225 372.528 255.794 372.528C253.363 372.528 250.989 373.263 248.982 374.635L240.407 380.549L243.383 370.562C244.068 368.23 244.032 365.745 243.28 363.433C242.529 361.122 241.096 359.091 239.171 357.607L230.9 351.28L241.315 351.024C243.745 350.955 246.098 350.154 248.065 348.724C250.032 347.295 251.521 345.305 252.337 343.015L255.799 333.19L259.262 343.019C260.08 345.307 261.57 347.295 263.537 348.722C265.503 350.15 267.855 350.95 270.284 351.019L280.697 351.275L272.42 357.607Z" fill="#E51937"/>
<path d="M404.288 335.563L385.282 335.097L378.964 317.165C378.139 314.822 376.607 312.794 374.579 311.359C372.552 309.924 370.13 309.153 367.646 309.153C365.162 309.153 362.74 309.924 360.712 311.359C358.685 312.794 357.153 314.822 356.328 317.165L350.01 335.1L331.01 335.566C328.526 335.626 326.122 336.455 324.13 337.939C322.138 339.423 320.655 341.489 319.887 343.852C319.119 346.215 319.103 348.757 319.841 351.129C320.58 353.502 322.036 355.586 324.01 357.095L339.11 368.645L333.682 386.865C332.972 389.246 333.019 391.788 333.816 394.141C334.613 396.494 336.121 398.542 338.131 400.002C340.141 401.461 342.555 402.261 345.039 402.291C347.523 402.321 349.955 401.578 352 400.167L367.651 389.373L383.3 400.167C385.344 401.576 387.775 402.317 390.258 402.286C392.741 402.256 395.153 401.456 397.162 399.996C399.171 398.537 400.678 396.491 401.475 394.139C402.272 391.788 402.321 389.247 401.613 386.867L396.185 368.647L411.285 357.097C413.258 355.588 414.715 353.504 415.453 351.131C416.192 348.759 416.176 346.217 415.408 343.854C414.639 341.491 413.157 339.425 411.165 337.941C409.172 336.457 406.769 335.628 404.285 335.568L404.288 335.563ZM384.271 357.607C382.345 359.091 380.912 361.123 380.161 363.435C379.409 365.748 379.374 368.233 380.06 370.566L383.034 380.55L374.457 374.635C372.45 373.263 370.076 372.528 367.645 372.528C365.214 372.528 362.839 373.263 360.833 374.635L352.258 380.549L355.231 370.567C355.917 368.234 355.883 365.748 355.132 363.436C354.381 361.123 352.948 359.091 351.022 357.607L342.748 351.279L353.162 351.023C355.592 350.954 357.945 350.152 359.912 348.723C361.878 347.294 363.368 345.304 364.184 343.014L367.646 333.187L371.107 343.014C371.924 345.304 373.413 347.294 375.38 348.723C377.348 350.152 379.7 350.954 382.131 351.023L392.544 351.279L384.271 357.607Z" fill="#E51937"/>
<path d="M181 335.563L162 335.097L155.682 317.165C154.857 314.822 153.325 312.794 151.298 311.359C149.27 309.924 146.848 309.153 144.364 309.153C141.88 309.153 139.458 309.924 137.431 311.359C135.403 312.794 133.871 314.822 133.046 317.165L126.718 335.1L107.712 335.566C105.228 335.626 102.825 336.455 100.832 337.939C98.84 339.423 97.3575 341.489 96.5893 343.852C95.8211 346.215 95.8051 348.757 96.5436 351.129C97.2821 353.502 98.7386 355.586 100.712 357.095L115.812 368.645L110.384 386.865C109.676 389.245 109.724 391.786 110.522 394.137C111.319 396.489 112.826 398.535 114.835 399.994C116.844 401.454 119.256 402.254 121.739 402.284C124.222 402.315 126.653 401.574 128.697 400.165L144.348 389.371L159.999 400.165C162.043 401.574 164.475 402.315 166.957 402.284C169.44 402.254 171.852 401.454 173.861 399.994C175.87 398.535 177.377 396.489 178.175 394.137C178.972 391.786 179.02 389.245 178.312 386.865L172.884 368.645L187.984 357.095C189.958 355.586 191.414 353.502 192.153 351.129C192.891 348.757 192.875 346.215 192.107 343.852C191.339 341.489 189.856 339.423 187.864 337.939C185.872 336.455 183.468 335.626 180.984 335.566L181 335.563ZM160.984 357.607C159.058 359.091 157.625 361.123 156.874 363.435C156.122 365.748 156.087 368.233 156.773 370.566L159.747 380.55L151.17 374.635C149.163 373.263 146.789 372.528 144.358 372.528C141.927 372.528 139.553 373.263 137.546 374.635L128.971 380.549L131.944 370.567C132.631 368.234 132.596 365.748 131.845 363.436C131.094 361.123 129.661 359.091 127.735 357.607L119.461 351.279L129.875 351.023C132.305 350.954 134.658 350.152 136.625 348.723C138.592 347.294 140.081 345.304 140.897 343.014L144.359 333.187L147.82 343.014C148.637 345.304 150.126 347.294 152.094 348.723C154.061 350.152 156.414 350.954 158.844 351.023L169.257 351.279L160.984 357.607Z" fill="#E51937"/>
</svg>
