<svg width="512" height="512" viewBox="0 0 512 512" fill="none" xmlns="http://www.w3.org/2000/svg">
<path d="M452 40H60C50.4555 40.0106 41.3049 43.8068 34.5559 50.5559C27.8068 57.3049 24.0106 66.4555 24 76V372C24.0106 381.545 27.8068 390.695 34.5559 397.444C41.3049 404.193 50.4555 407.989 60 408H196.9L193.277 418.866L185.468 424.073C180.09 427.65 175.68 432.503 172.632 438.198C169.584 443.894 167.993 450.254 168 456.714V464C168 466.122 168.843 468.157 170.343 469.657C171.843 471.157 173.878 472 176 472H337.373C339.495 472 341.53 471.157 343.03 469.657C344.53 468.157 345.373 466.122 345.373 464V456.714C345.38 450.254 343.788 443.893 340.74 438.198C337.692 432.503 333.282 427.65 327.903 424.073L319.903 418.742L315.713 408H452C461.545 407.989 470.695 404.193 477.444 397.444C484.193 390.695 487.989 381.545 488 372V76C487.989 66.4555 484.193 57.3049 477.444 50.5559C470.695 43.8068 461.545 40.0106 452 40V40ZM319.028 437.385C322.112 439.436 324.66 442.197 326.458 445.436C328.256 448.675 329.252 452.297 329.362 456H184.011C184.121 452.297 185.116 448.675 186.914 445.436C188.712 442.197 191.26 439.436 194.344 437.385L204.438 430.656C205.918 429.669 207.027 428.217 207.589 426.53L213.766 408H224C223.988 416.15 227.086 423.997 232.662 429.941C238.237 435.884 245.871 439.477 254.005 439.985C262.139 440.493 270.16 437.879 276.432 432.675C282.704 427.471 286.755 420.071 287.757 411.983C287.918 410.661 287.999 409.331 288 408H298.533L305.917 426.91C306.515 428.438 307.567 429.746 308.932 430.656L319.028 437.385ZM240 408H271.993C271.994 408.684 271.955 409.368 271.875 410.048C271.367 414.091 269.335 417.788 266.194 420.384C263.054 422.981 259.041 424.281 254.974 424.02C250.907 423.758 247.094 421.955 244.311 418.978C241.529 416.001 239.987 412.075 240 408ZM472 372C471.994 377.302 469.885 382.386 466.135 386.135C462.386 389.885 457.302 391.994 452 392H60C54.6975 391.994 49.614 389.885 45.8646 386.135C42.1152 382.386 40.0061 377.302 40 372V360H472V372ZM472 344H40V76C40.0061 70.6975 42.1152 65.614 45.8646 61.8646C49.614 58.1152 54.6975 56.0061 60 56H452C457.302 56.0061 462.386 58.1152 466.135 61.8646C469.885 65.614 471.994 70.6975 472 76V344Z" fill="#E51937"/>
<path d="M212 104H204.944L191.155 76.422C190.491 75.0933 189.469 73.9758 188.206 73.1948C186.942 72.4138 185.486 72.0001 184 72H120C118.758 72 117.533 72.2892 116.422 72.8446C115.311 73.4 114.345 74.2064 113.6 75.2L92 104H82C75.1068 104.008 68.4982 106.75 63.624 111.624C58.7498 116.498 56.0079 123.107 56 130V152C56 154.122 56.8429 156.157 58.3431 157.657C59.8434 159.157 61.8783 160 64 160H81.376C83.0318 164.677 86.0963 168.726 90.1478 171.589C94.1993 174.453 99.0387 175.99 104 175.99C108.961 175.99 113.801 174.453 117.852 171.589C121.904 168.726 124.968 164.677 126.624 160H161.376C163.032 164.677 166.096 168.726 170.148 171.589C174.199 174.453 179.039 175.99 184 175.99C188.961 175.99 193.801 174.453 197.852 171.589C201.904 168.726 204.968 164.677 206.624 160H224C226.122 160 228.157 159.157 229.657 157.657C231.157 156.157 232 154.122 232 152V124C231.994 118.698 229.885 113.614 226.135 109.865C222.386 106.115 217.302 104.006 212 104V104ZM160 88H179.056L187.056 104H160V88ZM124 88H144V104H112L124 88ZM104 160C102.418 160 100.871 159.531 99.5554 158.652C98.2398 157.773 97.2145 156.523 96.609 155.061C96.0035 153.6 95.845 151.991 96.1537 150.439C96.4624 148.887 97.2243 147.462 98.3431 146.343C99.462 145.224 100.887 144.462 102.439 144.154C103.991 143.845 105.6 144.003 107.061 144.609C108.523 145.214 109.773 146.24 110.652 147.555C111.531 148.871 112 150.418 112 152C111.998 154.121 111.154 156.154 109.654 157.654C108.154 159.154 106.121 159.998 104 160ZM184 160C182.418 160 180.871 159.531 179.555 158.652C178.24 157.773 177.214 156.523 176.609 155.061C176.003 153.6 175.845 151.991 176.154 150.439C176.462 148.887 177.224 147.462 178.343 146.343C179.462 145.224 180.887 144.462 182.439 144.154C183.991 143.845 185.6 144.003 187.061 144.609C188.523 145.214 189.773 146.24 190.652 147.555C191.531 148.871 192 150.418 192 152C191.998 154.121 191.154 156.154 189.654 157.654C188.154 159.154 186.121 159.998 184 160V160ZM216 144H206.624C204.968 139.323 201.904 135.274 197.852 132.411C193.801 129.547 188.961 128.01 184 128.01C179.039 128.01 174.199 129.547 170.148 132.411C166.096 135.274 163.032 139.323 161.376 144H126.624C124.968 139.323 121.904 135.274 117.852 132.411C113.801 129.547 108.961 128.01 104 128.01C99.0387 128.01 94.1993 129.547 90.1478 132.411C86.0963 135.274 83.0318 139.323 81.376 144H72V130C72.0029 127.349 73.0574 124.807 74.9321 122.932C76.8069 121.057 79.3487 120.003 82 120H212C213.061 120 214.078 120.421 214.828 121.172C215.579 121.922 216 122.939 216 124V144Z" fill="#E51937"/>
<path d="M451.76 97.216L432 109.566V104C432 101.878 431.157 99.8434 429.657 98.3432C428.157 96.8429 426.122 96 424 96H360C357.878 96 355.843 96.8429 354.343 98.3432C352.843 99.8434 352 101.878 352 104V168C352 170.122 352.843 172.157 354.343 173.657C355.843 175.157 357.878 176 360 176H424C426.122 176 428.157 175.157 429.657 173.657C431.157 172.157 432 170.122 432 168V128.434L460.24 110.784C462.039 109.659 463.318 107.866 463.795 105.799C464.272 103.731 463.909 101.559 462.784 99.76C461.659 97.9608 459.866 96.682 457.799 96.2049C455.731 95.7278 453.559 96.0915 451.76 97.216ZM416 119.566L395.221 132.553L391.155 124.422C390.196 122.541 388.533 121.116 386.528 120.456C384.522 119.797 382.338 119.956 380.45 120.901C378.562 121.845 377.123 123.497 376.448 125.497C375.773 127.497 375.916 129.683 376.845 131.578L384.845 147.578C385.343 148.575 386.045 149.456 386.904 150.166C387.763 150.876 388.761 151.399 389.834 151.701C390.906 152.003 392.03 152.077 393.134 151.919C394.237 151.761 395.295 151.375 396.24 150.784L416 138.434V160H368V112H416V119.566Z" fill="#E51937"/>
<path d="M328 112H256C253.878 112 251.843 112.843 250.343 114.343C248.843 115.843 248 117.878 248 120C248 122.122 248.843 124.157 250.343 125.657C251.843 127.157 253.878 128 256 128H328C330.122 128 332.157 127.157 333.657 125.657C335.157 124.157 336 122.122 336 120C336 117.878 335.157 115.843 333.657 114.343C332.157 112.843 330.122 112 328 112Z" fill="#E51937"/>
<path d="M256 160H280C282.122 160 284.157 159.157 285.657 157.657C287.157 156.157 288 154.122 288 152C288 149.878 287.157 147.843 285.657 146.343C284.157 144.843 282.122 144 280 144H256C253.878 144 251.843 144.843 250.343 146.343C248.843 147.843 248 149.878 248 152C248 154.122 248.843 156.157 250.343 157.657C251.843 159.157 253.878 160 256 160Z" fill="#E51937"/>
<path d="M328 144H304C301.878 144 299.843 144.843 298.343 146.343C296.843 147.843 296 149.878 296 152C296 154.122 296.843 156.157 298.343 157.657C299.843 159.157 301.878 160 304 160H328C330.122 160 332.157 159.157 333.657 157.657C335.157 156.157 336 154.122 336 152C336 149.878 335.157 147.843 333.657 146.343C332.157 144.843 330.122 144 328 144Z" fill="#E51937"/>
<path d="M296 264H256C253.878 264 251.843 264.843 250.343 266.343C248.843 267.843 248 269.878 248 272C248 274.122 248.843 276.157 250.343 277.657C251.843 279.157 253.878 280 256 280H296C298.122 280 300.157 279.157 301.657 277.657C303.157 276.157 304 274.122 304 272C304 269.878 303.157 267.843 301.657 266.343C300.157 264.843 298.122 264 296 264Z" fill="#E51937"/>
<path d="M328 264H320C317.878 264 315.843 264.843 314.343 266.343C312.843 267.843 312 269.878 312 272C312 274.122 312.843 276.157 314.343 277.657C315.843 279.157 317.878 280 320 280H328C330.122 280 332.157 279.157 333.657 277.657C335.157 276.157 336 274.122 336 272C336 269.878 335.157 267.843 333.657 266.343C332.157 264.843 330.122 264 328 264Z" fill="#E51937"/>
<path d="M328 232H256C253.878 232 251.843 232.843 250.343 234.343C248.843 235.843 248 237.878 248 240C248 242.122 248.843 244.157 250.343 245.657C251.843 247.157 253.878 248 256 248H328C330.122 248 332.157 247.157 333.657 245.657C335.157 244.157 336 242.122 336 240C336 237.878 335.157 235.843 333.657 234.343C332.157 232.843 330.122 232 328 232Z" fill="#E51937"/>
<path d="M256 328C260.418 328 264 324.418 264 320C264 315.582 260.418 312 256 312C251.582 312 248 315.582 248 320C248 324.418 251.582 328 256 328Z" fill="#E51937"/>
<path d="M288 328C292.418 328 296 324.418 296 320C296 315.582 292.418 312 288 312C283.582 312 280 315.582 280 320C280 324.418 283.582 328 288 328Z" fill="#E51937"/>
<path d="M224 328C228.418 328 232 324.418 232 320C232 315.582 228.418 312 224 312C219.582 312 216 315.582 216 320C216 324.418 219.582 328 224 328Z" fill="#E51937"/>
<path d="M206.4 195.2C205.655 194.206 204.689 193.4 203.578 192.845C202.467 192.289 201.242 192 200 192H128C126.758 192 125.533 192.289 124.422 192.845C123.311 193.4 122.345 194.206 121.6 195.2L100 224H82C75.1068 224.008 68.4982 226.75 63.624 231.624C58.7498 236.498 56.0079 243.107 56 250V272C56 274.122 56.8429 276.157 58.3431 277.657C59.8434 279.157 61.8783 280 64 280H81.376C83.0318 284.677 86.0963 288.726 90.1478 291.589C94.1993 294.453 99.0387 295.99 104 295.99C108.961 295.99 113.801 294.453 117.852 291.589C121.904 288.726 124.968 284.677 126.624 280H161.376C163.032 284.677 166.096 288.726 170.148 291.589C174.199 294.453 179.039 295.99 184 295.99C188.961 295.99 193.801 294.453 197.852 291.589C201.904 288.726 204.968 284.677 206.624 280H214C218.772 279.994 223.347 278.096 226.722 274.722C230.096 271.347 231.994 266.772 232 262V232C232 230.269 231.439 228.585 230.4 227.2L206.4 195.2ZM208 224H168V208H196L208 224ZM132 208H152V224H120L132 208ZM104 280C102.418 280 100.871 279.531 99.5554 278.652C98.2398 277.773 97.2145 276.523 96.609 275.061C96.0035 273.6 95.845 271.991 96.1537 270.439C96.4624 268.887 97.2243 267.462 98.3431 266.343C99.462 265.224 100.887 264.462 102.439 264.154C103.991 263.845 105.6 264.003 107.061 264.609C108.523 265.214 109.773 266.24 110.652 267.555C111.531 268.871 112 270.418 112 272C111.998 274.121 111.154 276.154 109.654 277.654C108.154 279.154 106.121 279.998 104 280V280ZM184 280C182.418 280 180.871 279.531 179.555 278.652C178.24 277.773 177.214 276.523 176.609 275.061C176.003 273.6 175.845 271.991 176.154 270.439C176.462 268.887 177.224 267.462 178.343 266.343C179.462 265.224 180.887 264.462 182.439 264.154C183.991 263.845 185.6 264.003 187.061 264.609C188.523 265.214 189.773 266.24 190.652 267.555C191.531 268.871 192 270.418 192 272C191.998 274.121 191.154 276.154 189.654 277.654C188.154 279.154 186.121 279.998 184 280V280ZM216 262C216 262.53 215.789 263.039 215.414 263.414C215.039 263.789 214.53 264 214 264H206.624C204.968 259.323 201.904 255.274 197.852 252.411C193.801 249.547 188.961 248.01 184 248.01C179.039 248.01 174.199 249.547 170.148 252.411C166.096 255.274 163.032 259.323 161.376 264H126.624C124.968 259.323 121.904 255.274 117.852 252.411C113.801 249.547 108.961 248.01 104 248.01C99.0387 248.01 94.1993 249.547 90.1478 252.411C86.0963 255.274 83.0318 259.323 81.376 264H72V250C72.0029 247.349 73.0574 244.807 74.9321 242.932C76.8069 241.057 79.3487 240.003 82 240H216V262Z" fill="#E51937"/>
<path d="M424 208H360C357.878 208 355.843 208.843 354.343 210.343C352.843 211.843 352 213.878 352 216V280C352 282.122 352.843 284.157 354.343 285.657C355.843 287.157 357.878 288 360 288H424C426.122 288 428.157 287.157 429.657 285.657C431.157 284.157 432 282.122 432 280V216C432 213.878 431.157 211.843 429.657 210.343C428.157 208.843 426.122 208 424 208ZM368 235.313L380.687 248L368 260.687V235.313ZM379.313 224H404.687L392 236.687L379.313 224ZM392 259.313L404.687 272H379.313L392 259.313ZM403.313 248L416 235.313V260.687L403.313 248Z" fill="#E51937"/>
</svg>
