<svg width="10" height="10" viewBox="0 0 10 10" fill="none" xmlns="http://www.w3.org/2000/svg">
<path d="M9.81055 3.72656C9.88672 3.66602 10 3.72266 10 3.81836V7.8125C10 8.33008 9.58008 8.75 9.0625 8.75H0.9375C0.419922 8.75 0 8.33008 0 7.8125V3.82031C0 3.72266 0.111328 3.66797 0.189453 3.72852C0.626953 4.06836 1.20703 4.5 3.19922 5.94727C3.61133 6.24805 4.30664 6.88086 5 6.87695C5.69727 6.88281 6.40625 6.23633 6.80273 5.94727C8.79492 4.5 9.37305 4.06641 9.81055 3.72656ZM5 6.25C5.45312 6.25781 6.10547 5.67969 6.43359 5.44141C9.02539 3.56055 9.22266 3.39648 9.82031 2.92773C9.93359 2.83984 10 2.70312 10 2.55859V2.1875C10 1.66992 9.58008 1.25 9.0625 1.25H0.9375C0.419922 1.25 0 1.66992 0 2.1875V2.55859C0 2.70312 0.0664062 2.83789 0.179688 2.92773C0.777344 3.39453 0.97461 3.56055 3.56641 5.44141C3.89453 5.67969 4.54688 6.25781 5 6.25Z" fill="#E51937"/>
</svg>
