<svg width="10" height="10" viewBox="0 0 10 10" fill="none" xmlns="http://www.w3.org/2000/svg">
<g clip-path="url(#clip0_19_0)">
<path d="M9.71465 7.06642L7.52715 6.12891C7.4337 6.08909 7.32984 6.0807 7.23121 6.105C7.13258 6.12931 7.04452 6.185 6.98027 6.26368L6.01152 7.44728C4.49116 6.73044 3.26762 5.5069 2.55078 3.98653L3.73438 3.01778C3.81322 2.95366 3.86902 2.86559 3.89334 2.76691C3.91766 2.66824 3.90916 2.56432 3.86914 2.47091L2.93164 0.283405C2.88772 0.182703 2.81003 0.100484 2.71198 0.0509237C2.61393 0.0013638 2.50166 -0.0124303 2.39453 0.0119201L0.363281 0.48067C0.259994 0.504522 0.167841 0.562678 0.101862 0.645648C0.0358838 0.728617 -2.37932e-05 0.831501 1.18285e-08 0.937506C1.18285e-08 5.94727 4.06055 10 9.0625 10C9.16854 10.0001 9.27147 9.96419 9.35448 9.89821C9.43749 9.83223 9.49567 9.74005 9.51953 9.63673L9.98828 7.60548C10.0125 7.49783 9.99839 7.38511 9.94845 7.28672C9.8985 7.18833 9.81583 7.11043 9.71465 7.06642Z" fill="#E51937"/>
</g>
<defs>
<clipPath id="clip0_19_0">
<rect width="10" height="10" fill="white"/>
</clipPath>
</defs>
</svg>
