<svg width="1281" height="274" viewBox="0 0 1281 274" fill="none" xmlns="http://www.w3.org/2000/svg">
<path d="M381.8 33.4H343.8V71.8H374.8V88.6H343.8V142H320.6V15.8H381.8V33.4ZM449.056 15.8H472.056V122.2C472.056 135.4 464.79 142 450.256 142H425.856C411.323 142 404.056 135.4 404.056 122.2V15.8H427.056V119C427.056 121.133 427.456 122.6 428.256 123.4C429.056 124.067 430.523 124.4 432.656 124.4H443.256C445.523 124.4 447.056 124.067 447.856 123.4C448.656 122.6 449.056 121.133 449.056 119V15.8ZM560.575 15.8V33.4H538.375V142H515.375V33.4H493.375V15.8H560.575ZM626.916 15.8H649.916V122.2C649.916 135.4 642.649 142 628.116 142H603.716C589.182 142 581.916 135.4 581.916 122.2V15.8H604.916V119C604.916 121.133 605.316 122.6 606.116 123.4C606.916 124.067 608.382 124.4 610.516 124.4H621.116C623.382 124.4 624.916 124.067 625.716 123.4C626.516 122.6 626.916 121.133 626.916 119V15.8ZM702.834 92.8V142H679.834V15.8H726.234C740.768 15.8 748.034 22.4 748.034 35.6V73C748.034 83.9333 743.168 90.3333 733.434 92.2L754.434 142H729.634L710.434 92.8H702.834ZM702.834 33.4V75.8H719.434C721.568 75.8 723.034 75.4667 723.834 74.8C724.634 74 725.034 72.5333 725.034 70.4V38.8C725.034 36.6667 724.634 35.2667 723.834 34.6C723.034 33.8 721.568 33.4 719.434 33.4H702.834ZM799.972 124.4H838.372V142H776.772V15.8H836.772V33.4H799.972V68.4H830.972V86.2H799.972V124.4Z" fill="white"/>
<path d="M885.577 124.4H919.177V142H862.577V15.8H885.577V124.4ZM963.573 124.4H1001.97V142H940.373V15.8H1000.37V33.4H963.573V68.4H994.573V86.2H963.573V124.4ZM1077.98 142L1073.18 115.8H1045.58L1041.18 142H1018.18L1043.58 15.8H1074.58L1101.18 142H1077.98ZM1048.58 98.4H1069.98L1058.98 38L1048.58 98.4ZM1163.31 119V92C1163.31 89.8667 1162.91 88.4667 1162.11 87.8C1161.31 87 1159.84 86.6 1157.71 86.6H1141.51C1127.78 86.6 1120.91 79.9333 1120.91 66.6V35.6C1120.91 22.4 1128.11 15.8 1142.51 15.8H1164.51C1178.91 15.8 1186.11 22.4 1186.11 35.6V53.2H1162.91V38.8C1162.91 36.6667 1162.51 35.2667 1161.71 34.6C1160.91 33.8 1159.44 33.4 1157.31 33.4H1149.71C1147.44 33.4 1145.91 33.8 1145.11 34.6C1144.31 35.2667 1143.91 36.6667 1143.91 38.8V64.2C1143.91 66.3333 1144.31 67.8 1145.11 68.6C1145.91 69.2667 1147.44 69.6 1149.71 69.6H1165.51C1179.51 69.6 1186.51 76.1333 1186.51 89.2V122.2C1186.51 135.4 1179.24 142 1164.71 142H1143.11C1128.58 142 1121.31 135.4 1121.31 122.2V104.8H1144.31V119C1144.31 121.133 1144.71 122.6 1145.51 123.4C1146.31 124.067 1147.84 124.4 1150.11 124.4H1157.71C1159.84 124.4 1161.31 124.067 1162.11 123.4C1162.91 122.6 1163.31 121.133 1163.31 119ZM1237.39 124.4H1275.79V142H1214.19V15.8H1274.19V33.4H1237.39V68.4H1268.39V86.2H1237.39V124.4Z" fill="#E51937"/>
<path d="M345.255 198.175C342.025 198.175 339.107 198.742 336.5 199.875C333.893 200.952 331.683 202.567 329.87 204.72C328.057 206.817 326.668 209.395 325.705 212.455C324.742 215.458 324.26 218.858 324.26 222.655C324.26 227.642 325.025 231.977 326.555 235.66C328.142 239.343 330.465 242.177 333.525 244.16C336.642 246.143 340.523 247.135 345.17 247.135C347.833 247.135 350.355 246.908 352.735 246.455C355.115 246.002 357.438 245.435 359.705 244.755V251.385C357.438 252.235 355.087 252.858 352.65 253.255C350.27 253.652 347.408 253.85 344.065 253.85C337.888 253.85 332.732 252.575 328.595 250.025C324.458 247.475 321.342 243.848 319.245 239.145C317.205 234.442 316.185 228.917 316.185 222.57C316.185 217.98 316.808 213.787 318.055 209.99C319.358 206.193 321.228 202.907 323.665 200.13C326.158 197.353 329.218 195.228 332.845 193.755C336.472 192.225 340.637 191.46 345.34 191.46C348.457 191.46 351.46 191.772 354.35 192.395C357.24 193.018 359.818 193.897 362.085 195.03L359.025 201.49C357.155 200.64 355.058 199.875 352.735 199.195C350.468 198.515 347.975 198.175 345.255 198.175ZM397.261 206.675C402.814 206.675 406.923 207.893 409.586 210.33C412.249 212.767 413.581 216.648 413.581 221.975V253H408.141L406.696 246.54H406.356C405.053 248.183 403.693 249.572 402.276 250.705C400.916 251.782 399.329 252.575 397.516 253.085C395.759 253.595 393.606 253.85 391.056 253.85C388.336 253.85 385.871 253.368 383.661 252.405C381.508 251.442 379.808 249.968 378.561 247.985C377.314 245.945 376.691 243.395 376.691 240.335C376.691 235.802 378.476 232.317 382.046 229.88C385.616 227.387 391.113 226.027 398.536 225.8L406.271 225.545V222.825C406.271 219.028 405.449 216.393 403.806 214.92C402.163 213.447 399.839 212.71 396.836 212.71C394.456 212.71 392.189 213.078 390.036 213.815C387.883 214.495 385.871 215.288 384.001 216.195L381.706 210.585C383.689 209.508 386.041 208.602 388.761 207.865C391.481 207.072 394.314 206.675 397.261 206.675ZM399.471 230.985C393.804 231.212 389.866 232.118 387.656 233.705C385.503 235.292 384.426 237.53 384.426 240.42C384.426 242.97 385.191 244.84 386.721 246.03C388.308 247.22 390.319 247.815 392.756 247.815C396.609 247.815 399.811 246.767 402.361 244.67C404.911 242.517 406.186 239.23 406.186 234.81V230.73L399.471 230.985ZM456.978 206.59C457.828 206.59 458.734 206.647 459.698 206.76C460.718 206.817 461.596 206.93 462.333 207.1L461.398 213.985C460.661 213.815 459.839 213.673 458.933 213.56C458.083 213.447 457.261 213.39 456.468 213.39C454.711 213.39 453.039 213.758 451.453 214.495C449.866 215.232 448.449 216.28 447.203 217.64C445.956 218.943 444.964 220.53 444.228 222.4C443.548 224.27 443.208 226.367 443.208 228.69V253H435.728V207.44H441.848L442.698 215.77H443.038C444.001 214.07 445.163 212.54 446.523 211.18C447.883 209.763 449.441 208.658 451.198 207.865C452.954 207.015 454.881 206.59 456.978 206.59ZM510.09 253V192.31H517.74V246.2H544.26V253H510.09ZM579.315 206.59C583.225 206.59 586.568 207.44 589.345 209.14C592.178 210.84 594.332 213.248 595.805 216.365C597.335 219.425 598.1 223.023 598.1 227.16V231.665H566.905C567.018 236.822 568.322 240.76 570.815 243.48C573.365 246.143 576.907 247.475 581.44 247.475C584.33 247.475 586.88 247.22 589.09 246.71C591.357 246.143 593.68 245.35 596.06 244.33V250.875C593.737 251.895 591.442 252.632 589.175 253.085C586.908 253.595 584.217 253.85 581.1 253.85C576.793 253.85 572.968 252.972 569.625 251.215C566.338 249.458 563.76 246.852 561.89 243.395C560.077 239.882 559.17 235.603 559.17 230.56C559.17 225.573 559.992 221.295 561.635 217.725C563.335 214.155 565.687 211.407 568.69 209.48C571.75 207.553 575.292 206.59 579.315 206.59ZM579.23 212.71C575.66 212.71 572.827 213.872 570.73 216.195C568.69 218.462 567.472 221.635 567.075 225.715H590.28C590.28 223.108 589.883 220.842 589.09 218.915C588.297 216.988 587.078 215.487 585.435 214.41C583.848 213.277 581.78 212.71 579.23 212.71ZM635.029 206.675C640.582 206.675 644.69 207.893 647.354 210.33C650.017 212.767 651.349 216.648 651.349 221.975V253H645.909L644.464 246.54H644.124C642.82 248.183 641.46 249.572 640.044 250.705C638.684 251.782 637.097 252.575 635.284 253.085C633.527 253.595 631.374 253.85 628.824 253.85C626.104 253.85 623.639 253.368 621.429 252.405C619.275 251.442 617.575 249.968 616.329 247.985C615.082 245.945 614.459 243.395 614.459 240.335C614.459 235.802 616.244 232.317 619.814 229.88C623.384 227.387 628.88 226.027 636.304 225.8L644.039 225.545V222.825C644.039 219.028 643.217 216.393 641.574 214.92C639.93 213.447 637.607 212.71 634.604 212.71C632.224 212.71 629.957 213.078 627.804 213.815C625.65 214.495 623.639 215.288 621.769 216.195L619.474 210.585C621.457 209.508 623.809 208.602 626.529 207.865C629.249 207.072 632.082 206.675 635.029 206.675ZM637.239 230.985C631.572 231.212 627.634 232.118 625.424 233.705C623.27 235.292 622.194 237.53 622.194 240.42C622.194 242.97 622.959 244.84 624.489 246.03C626.075 247.22 628.087 247.815 630.524 247.815C634.377 247.815 637.579 246.767 640.129 244.67C642.679 242.517 643.954 239.23 643.954 234.81V230.73L637.239 230.985ZM703.16 240.42C703.16 243.367 702.423 245.832 700.95 247.815C699.477 249.798 697.38 251.3 694.66 252.32C691.94 253.34 688.71 253.85 684.97 253.85C681.797 253.85 679.048 253.595 676.725 253.085C674.458 252.575 672.447 251.867 670.69 250.96V244.16C672.503 245.067 674.685 245.917 677.235 246.71C679.842 247.447 682.477 247.815 685.14 247.815C688.937 247.815 691.685 247.22 693.385 246.03C695.085 244.783 695.935 243.14 695.935 241.1C695.935 239.967 695.623 238.947 695 238.04C694.377 237.133 693.243 236.227 691.6 235.32C690.013 234.413 687.718 233.393 684.715 232.26C681.768 231.127 679.247 229.993 677.15 228.86C675.053 227.727 673.438 226.367 672.305 224.78C671.172 223.193 670.605 221.153 670.605 218.66C670.605 214.807 672.163 211.832 675.28 209.735C678.453 207.638 682.59 206.59 687.69 206.59C690.467 206.59 693.045 206.873 695.425 207.44C697.862 207.95 700.128 208.687 702.225 209.65L699.675 215.6C698.428 215.033 697.097 214.552 695.68 214.155C694.32 213.702 692.932 213.362 691.515 213.135C690.098 212.852 688.653 212.71 687.18 212.71C684.12 212.71 681.768 213.22 680.125 214.24C678.538 215.203 677.745 216.535 677.745 218.235C677.745 219.482 678.113 220.558 678.85 221.465C679.587 222.315 680.805 223.165 682.505 224.015C684.262 224.808 686.585 225.772 689.475 226.905C692.365 227.982 694.83 229.087 696.87 230.22C698.91 231.353 700.468 232.742 701.545 234.385C702.622 235.972 703.16 237.983 703.16 240.42ZM729.724 207.44V253H722.244V207.44H729.724ZM726.069 190.355C727.202 190.355 728.194 190.752 729.044 191.545C729.951 192.282 730.404 193.472 730.404 195.115C730.404 196.702 729.951 197.892 729.044 198.685C728.194 199.478 727.202 199.875 726.069 199.875C724.822 199.875 723.774 199.478 722.924 198.685C722.074 197.892 721.649 196.702 721.649 195.115C721.649 193.472 722.074 192.282 722.924 191.545C723.774 190.752 724.822 190.355 726.069 190.355ZM774.163 206.59C779.603 206.59 783.711 207.922 786.488 210.585C789.265 213.192 790.653 217.442 790.653 223.335V253H783.258V223.845C783.258 220.162 782.436 217.413 780.793 215.6C779.15 213.787 776.571 212.88 773.058 212.88C768.015 212.88 764.53 214.297 762.603 217.13C760.676 219.963 759.713 224.043 759.713 229.37V253H752.233V207.44H758.268L759.373 213.645H759.798C760.818 212.058 762.065 210.755 763.538 209.735C765.068 208.658 766.74 207.865 768.553 207.355C770.366 206.845 772.236 206.59 774.163 206.59ZM829.002 206.59C832.005 206.59 834.697 207.157 837.077 208.29C839.514 209.423 841.582 211.152 843.282 213.475H843.707L844.727 207.44H850.677V253.765C850.677 258.072 849.94 261.67 848.467 264.56C846.994 267.507 844.755 269.717 841.752 271.19C838.749 272.663 834.924 273.4 830.277 273.4C826.99 273.4 823.959 273.145 821.182 272.635C818.462 272.182 816.025 271.473 813.872 270.51V263.625C815.345 264.362 816.96 264.985 818.717 265.495C820.474 266.062 822.372 266.487 824.412 266.77C826.452 267.053 828.549 267.195 830.702 267.195C834.612 267.195 837.672 266.033 839.882 263.71C842.149 261.443 843.282 258.327 843.282 254.36V252.575C843.282 251.895 843.31 250.932 843.367 249.685C843.424 248.382 843.48 247.475 843.537 246.965H843.197C841.61 249.288 839.627 251.017 837.247 252.15C834.924 253.283 832.204 253.85 829.087 253.85C823.194 253.85 818.575 251.782 815.232 247.645C811.945 243.508 810.302 237.728 810.302 230.305C810.302 225.432 811.039 221.238 812.512 217.725C814.042 214.155 816.195 211.407 818.972 209.48C821.749 207.553 825.092 206.59 829.002 206.59ZM830.022 212.88C827.472 212.88 825.29 213.56 823.477 214.92C821.72 216.28 820.36 218.263 819.397 220.87C818.49 223.477 818.037 226.65 818.037 230.39C818.037 236 819.057 240.307 821.097 243.31C823.194 246.257 826.225 247.73 830.192 247.73C832.515 247.73 834.499 247.447 836.142 246.88C837.785 246.257 839.145 245.322 840.222 244.075C841.299 242.772 842.092 241.128 842.602 239.145C843.112 237.162 843.367 234.81 843.367 232.09V230.305C843.367 226.168 842.885 222.825 841.922 220.275C841.015 217.725 839.57 215.855 837.587 214.665C835.604 213.475 833.082 212.88 830.022 212.88ZM938.822 236.765C938.822 240.392 937.944 243.48 936.187 246.03C934.43 248.523 931.909 250.45 928.622 251.81C925.392 253.17 921.567 253.85 917.147 253.85C914.88 253.85 912.699 253.737 910.602 253.51C908.562 253.283 906.692 252.972 904.992 252.575C903.292 252.122 901.79 251.583 900.487 250.96V243.65C902.527 244.557 905.049 245.378 908.052 246.115C911.112 246.852 914.257 247.22 917.487 247.22C920.49 247.22 923.012 246.823 925.052 246.03C927.092 245.237 928.622 244.103 929.642 242.63C930.662 241.157 931.172 239.428 931.172 237.445C931.172 235.462 930.747 233.79 929.897 232.43C929.047 231.07 927.574 229.823 925.477 228.69C923.437 227.5 920.575 226.253 916.892 224.95C914.285 223.987 911.99 222.967 910.007 221.89C908.08 220.757 906.465 219.482 905.162 218.065C903.859 216.648 902.867 215.033 902.187 213.22C901.564 211.407 901.252 209.31 901.252 206.93C901.252 203.7 902.074 200.952 903.717 198.685C905.36 196.362 907.627 194.577 910.517 193.33C913.464 192.083 916.835 191.46 920.632 191.46C923.975 191.46 927.035 191.772 929.812 192.395C932.589 193.018 935.11 193.84 937.377 194.86L934.997 201.405C932.9 200.498 930.605 199.733 928.112 199.11C925.675 198.487 923.125 198.175 920.462 198.175C917.912 198.175 915.787 198.543 914.087 199.28C912.387 200.017 911.112 201.065 910.262 202.425C909.412 203.728 908.987 205.258 908.987 207.015C908.987 209.055 909.412 210.755 910.262 212.115C911.112 213.475 912.5 214.693 914.427 215.77C916.354 216.847 918.96 218.008 922.247 219.255C925.817 220.558 928.82 221.975 931.257 223.505C933.75 224.978 935.62 226.763 936.867 228.86C938.17 230.957 938.822 233.592 938.822 236.765ZM975.697 206.59C979.607 206.59 982.951 207.44 985.727 209.14C988.561 210.84 990.714 213.248 992.187 216.365C993.717 219.425 994.482 223.023 994.482 227.16V231.665H963.287C963.401 236.822 964.704 240.76 967.197 243.48C969.747 246.143 973.289 247.475 977.822 247.475C980.712 247.475 983.262 247.22 985.472 246.71C987.739 246.143 990.062 245.35 992.442 244.33V250.875C990.119 251.895 987.824 252.632 985.557 253.085C983.291 253.595 980.599 253.85 977.482 253.85C973.176 253.85 969.351 252.972 966.007 251.215C962.721 249.458 960.142 246.852 958.272 243.395C956.459 239.882 955.552 235.603 955.552 230.56C955.552 225.573 956.374 221.295 958.017 217.725C959.717 214.155 962.069 211.407 965.072 209.48C968.132 207.553 971.674 206.59 975.697 206.59ZM975.612 212.71C972.042 212.71 969.209 213.872 967.112 216.195C965.072 218.462 963.854 221.635 963.457 225.715H986.662C986.662 223.108 986.266 220.842 985.472 218.915C984.679 216.988 983.461 215.487 981.817 214.41C980.231 213.277 978.162 212.71 975.612 212.71ZM1035.41 206.59C1036.26 206.59 1037.16 206.647 1038.13 206.76C1039.15 206.817 1040.02 206.93 1040.76 207.1L1039.83 213.985C1039.09 213.815 1038.27 213.673 1037.36 213.56C1036.51 213.447 1035.69 213.39 1034.9 213.39C1033.14 213.39 1031.47 213.758 1029.88 214.495C1028.29 215.232 1026.88 216.28 1025.63 217.64C1024.38 218.943 1023.39 220.53 1022.66 222.4C1021.98 224.27 1021.64 226.367 1021.64 228.69V253H1014.16V207.44H1020.28L1021.13 215.77H1021.47C1022.43 214.07 1023.59 212.54 1024.95 211.18C1026.31 209.763 1027.87 208.658 1029.63 207.865C1031.38 207.015 1033.31 206.59 1035.41 206.59ZM1067.37 253L1050.12 207.44H1058.11L1067.8 234.3C1068.25 235.547 1068.73 236.935 1069.24 238.465C1069.75 239.995 1070.21 241.468 1070.6 242.885C1071 244.245 1071.28 245.407 1071.45 246.37H1071.79C1072.02 245.407 1072.33 244.217 1072.73 242.8C1073.18 241.383 1073.66 239.91 1074.17 238.38C1074.74 236.85 1075.22 235.49 1075.62 234.3L1085.31 207.44H1093.3L1075.96 253H1067.37ZM1116.06 207.44V253H1108.58V207.44H1116.06ZM1112.41 190.355C1113.54 190.355 1114.53 190.752 1115.38 191.545C1116.29 192.282 1116.74 193.472 1116.74 195.115C1116.74 196.702 1116.29 197.892 1115.38 198.685C1114.53 199.478 1113.54 199.875 1112.41 199.875C1111.16 199.875 1110.11 199.478 1109.26 198.685C1108.41 197.892 1107.99 196.702 1107.99 195.115C1107.99 193.472 1108.41 192.282 1109.26 191.545C1110.11 190.752 1111.16 190.355 1112.41 190.355ZM1156.85 253.85C1152.82 253.85 1149.22 253.028 1146.05 251.385C1142.93 249.742 1140.47 247.192 1138.66 243.735C1136.9 240.278 1136.02 235.858 1136.02 230.475C1136.02 224.865 1136.96 220.303 1138.83 216.79C1140.7 213.277 1143.22 210.698 1146.39 209.055C1149.62 207.412 1153.28 206.59 1157.36 206.59C1159.68 206.59 1161.92 206.845 1164.07 207.355C1166.22 207.808 1167.98 208.375 1169.34 209.055L1167.05 215.26C1165.69 214.75 1164.1 214.268 1162.29 213.815C1160.47 213.362 1158.77 213.135 1157.19 213.135C1154.13 213.135 1151.6 213.787 1149.62 215.09C1147.64 216.393 1146.16 218.32 1145.2 220.87C1144.24 223.42 1143.76 226.593 1143.76 230.39C1143.76 234.017 1144.24 237.105 1145.2 239.655C1146.16 242.205 1147.61 244.132 1149.54 245.435C1151.46 246.738 1153.87 247.39 1156.76 247.39C1159.25 247.39 1161.44 247.135 1163.31 246.625C1165.23 246.115 1166.99 245.492 1168.58 244.755V251.385C1167.05 252.178 1165.35 252.773 1163.48 253.17C1161.66 253.623 1159.45 253.85 1156.85 253.85ZM1205.08 206.59C1208.99 206.59 1212.33 207.44 1215.11 209.14C1217.94 210.84 1220.1 213.248 1221.57 216.365C1223.1 219.425 1223.87 223.023 1223.87 227.16V231.665H1192.67C1192.78 236.822 1194.09 240.76 1196.58 243.48C1199.13 246.143 1202.67 247.475 1207.21 247.475C1210.1 247.475 1212.65 247.22 1214.86 246.71C1217.12 246.143 1219.45 245.35 1221.83 244.33V250.875C1219.5 251.895 1217.21 252.632 1214.94 253.085C1212.67 253.595 1209.98 253.85 1206.87 253.85C1202.56 253.85 1198.73 252.972 1195.39 251.215C1192.1 249.458 1189.53 246.852 1187.66 243.395C1185.84 239.882 1184.94 235.603 1184.94 230.56C1184.94 225.573 1185.76 221.295 1187.4 217.725C1189.1 214.155 1191.45 211.407 1194.46 209.48C1197.52 207.553 1201.06 206.59 1205.08 206.59ZM1205 212.71C1201.43 212.71 1198.59 213.872 1196.5 216.195C1194.46 218.462 1193.24 221.635 1192.84 225.715H1216.05C1216.05 223.108 1215.65 220.842 1214.86 218.915C1214.06 216.988 1212.84 215.487 1211.2 214.41C1209.61 213.277 1207.55 212.71 1205 212.71ZM1273.2 240.42C1273.2 243.367 1272.47 245.832 1270.99 247.815C1269.52 249.798 1267.42 251.3 1264.7 252.32C1261.98 253.34 1258.75 253.85 1255.01 253.85C1251.84 253.85 1249.09 253.595 1246.77 253.085C1244.5 252.575 1242.49 251.867 1240.73 250.96V244.16C1242.55 245.067 1244.73 245.917 1247.28 246.71C1249.89 247.447 1252.52 247.815 1255.18 247.815C1258.98 247.815 1261.73 247.22 1263.43 246.03C1265.13 244.783 1265.98 243.14 1265.98 241.1C1265.98 239.967 1265.67 238.947 1265.04 238.04C1264.42 237.133 1263.29 236.227 1261.64 235.32C1260.06 234.413 1257.76 233.393 1254.76 232.26C1251.81 231.127 1249.29 229.993 1247.19 228.86C1245.1 227.727 1243.48 226.367 1242.35 224.78C1241.22 223.193 1240.65 221.153 1240.65 218.66C1240.65 214.807 1242.21 211.832 1245.32 209.735C1248.5 207.638 1252.63 206.59 1257.73 206.59C1260.51 206.59 1263.09 206.873 1265.47 207.44C1267.91 207.95 1270.17 208.687 1272.27 209.65L1269.72 215.6C1268.47 215.033 1267.14 214.552 1265.72 214.155C1264.36 213.702 1262.98 213.362 1261.56 213.135C1260.14 212.852 1258.7 212.71 1257.22 212.71C1254.16 212.71 1251.81 213.22 1250.17 214.24C1248.58 215.203 1247.79 216.535 1247.79 218.235C1247.79 219.482 1248.16 220.558 1248.89 221.465C1249.63 222.315 1250.85 223.165 1252.55 224.015C1254.31 224.808 1256.63 225.772 1259.52 226.905C1262.41 227.982 1264.87 229.087 1266.91 230.22C1268.95 231.353 1270.51 232.742 1271.59 234.385C1272.67 235.972 1273.2 237.983 1273.2 240.42Z" fill="white" fill-opacity="0.8"/>
<path d="M121.5 10C54.4016 10 0 64.4016 0 131.5C0 198.598 54.4016 253 121.5 253C188.598 253 243 198.598 243 131.5C243 64.4016 188.598 10 121.5 10ZM121.5 40.375C161.041 40.375 194.438 65.8444 207.051 101.125H35.9488C48.562 65.8444 81.9593 40.375 121.5 40.375ZM121.5 146.688C113.109 146.688 106.312 139.891 106.312 131.5C106.312 123.109 113.109 116.312 121.5 116.312C129.891 116.312 136.688 123.109 136.688 131.5C136.688 139.891 129.891 146.688 121.5 146.688ZM30.375 131.5C71.8748 131.5 105.485 171.489 106.191 221.083C63.2408 213.725 30.375 176.501 30.375 131.5ZM136.809 221.083C137.515 171.489 171.125 131.5 212.625 131.5C212.625 176.501 179.759 213.725 136.809 221.083Z" fill="#E51937"/>
</svg>
